<?xml version="1.0" encoding="utf-8"?>
<svg version="1.1" id="svg2985" x="0px" y="0px" viewBox="-192 293.9 210 255"
     style="enable-background:new -192 293.9 210 255;" xmlns="http://www.w3.org/2000/svg">
  <style type="text/css">
    .st0{enable-background:new ;}
    .st1{fill:#005F00;}
    .st2{fill:#CDDACD;}
    .st3{fill:#FFFFFF;}
    .st4{fill:url(#rect3008_1_);}
    .st5{filter:url(#filter3970-5);}
    .st6{fill:url(#SVGID_1_);}
    .st7{fill:#038249;stroke:#038249;stroke-width:2;stroke-miterlimit:10;}
    .st8{fill:#BF3718;stroke:#BF3718;stroke-width:2;stroke-miterlimit:10;}
  </style>
  <g>
    <filter height="1.2150326" width="1.2171124" id="filter3970-5" x="-0.10855621" y="-0.10751629"
            color-interpolation-filters="sRGB">
      <feGaussianBlur stdDeviation="0.12800763" id="feGaussianBlur3972-8"/>
    </filter>
    <g id="g4146" transform="translate(39.768324,209.71794)"/>
    <g id="g4630" transform="matrix(1.0005937,0,0,1,-1.3758072,203.40625)" class="st0">
      <g id="g3062">
        <g id="path3936" class="st5"/>
      </g>
    </g>
    <g>
      <path class="st7"
            d="M-136.8,481.6c3.2-0.5,4.8-1.1,4.8-2c0-0.8-1.6-1.4-4.8-2c-3.2-0.6-6.9-0.8-11.3-0.8 c-4.4,0-8.1,0.3-11.3,0.8c-3.1,0.6-4.7,1.2-4.7,2c0,0.8,1.6,1.5,4.7,2c0.2,0.1,0.5,0.1,0.9,0.2V500c-0.4,0.1-0.7,0.1-0.9,0.2 c-3.1,0.6-4.7,1.2-4.7,2c0,0.8,1.6,1.5,4.7,2.1c0.2,0,0.5,0,0.9,0.1v18.2c-0.4,0.1-0.7,0.1-0.9,0.2c-3.1,0.6-4.7,1.2-4.7,2 c0,0.8,1.6,1.5,4.7,2c3.1,0.5,6.9,0.8,11.3,0.8c4.3,0,8.1-0.3,11.3-0.8c3.2-0.5,4.8-1.2,4.8-2c0-0.8-1.6-1.4-4.8-2 c-0.4-0.1-0.9-0.2-1.3-0.2v-18.1c0.4-0.1,0.9-0.2,1.3-0.2c3.2-0.6,4.8-1.2,4.8-2.1c0-0.8-1.6-1.4-4.8-2c-0.4-0.1-0.9-0.1-1.3-0.2 v-18.2C-137.7,481.7-137.2,481.6-136.8,481.6z M-152.3,480.9c0-1.4,1.5-2.1,4.4-2.1c2.9,0,4.4,0.7,4.4,2.1v18.5 c-1.5-0.1-3-0.1-4.5-0.1h-4.3V480.9z M-143.5,523.4c0,1.5-1.5,2.2-4.4,2.2c-2.9,0-4.4-0.7-4.4-2.2v-18.5c1.3,0.1,2.7,0.1,4.3,0.1 s3,0,4.5-0.1V523.4z M-141.2,503.2c-2,0.3-4.2,0.4-6.8,0.4c-2.6,0-4.9-0.1-6.8-0.4c-1.9-0.3-2.8-0.6-2.8-1c0-0.3,0.9-0.7,2.8-1 c1.9-0.3,4.1-0.5,6.8-0.5c2.6,0,4.8,0.2,6.8,0.5c2,0.3,3,0.6,3,1C-138.2,502.6-139.2,502.9-141.2,503.2z"/>
      <path class="st7"
            d="M-136.8,420.6c3.2-0.5,4.8-1.2,4.8-2.1c0-0.7-1.6-1.3-4.8-1.9c-3.2-0.6-6.9-0.9-11.3-0.9 c-4.4,0-8.1,0.3-11.3,0.9c-3.1,0.6-4.7,1.2-4.7,1.9c0,0.9,1.6,1.6,4.7,2.1c0.2,0.1,0.5,0.1,0.9,0.1V439c-0.4,0-0.7,0-0.9,0.1 c-3.1,0.6-4.7,1.3-4.7,2.1c0,0.8,1.6,1.5,4.7,2c0.2,0.1,0.5,0.1,0.9,0.1v18.3c-0.4,0.1-0.7,0.1-0.9,0.1c-3.1,0.6-4.7,1.2-4.7,2.1 s1.6,1.5,4.7,2c3.1,0.5,6.9,0.7,11.3,0.7c4.3,0,8.1-0.2,11.3-0.7c3.2-0.5,4.8-1.1,4.8-2s-1.6-1.5-4.8-2.1 c-0.4-0.1-0.9-0.1-1.3-0.2v-18.1c0.4-0.1,0.9-0.1,1.3-0.2c3.2-0.5,4.8-1.1,4.8-2c0-0.8-1.6-1.5-4.8-2.1c-0.4-0.1-0.9-0.1-1.3-0.2 v-18.1C-137.7,420.7-137.2,420.7-136.8,420.6z M-152.3,419.9c0-1.4,1.5-2.1,4.4-2.1c2.9,0,4.4,0.7,4.4,2.1v18.5 c-1.5-0.1-3-0.1-4.5-0.1s-3,0-4.3,0.1V419.9z M-143.5,462.4c0,1.4-1.5,2.1-4.4,2.1c-2.9,0-4.4-0.7-4.4-2.1v-18.5h8.8V462.4z M-141.2,442.2c-2,0.2-4.2,0.4-6.8,0.4c-2.6,0-4.9-0.1-6.8-0.4c-1.9-0.2-2.8-0.6-2.8-1s0.9-0.8,2.8-1.1c1.9-0.3,4.1-0.5,6.8-0.5 c2.6,0,4.8,0.2,6.8,0.5c2,0.3,3,0.7,3,1.1S-139.2,441.9-141.2,442.2z"/>
      <path class="st8"
            d="M-92.8,360.1c3.2-0.5,4.8-1.2,4.8-2.1c0-0.7-1.6-1.3-4.8-1.9c-3.2-0.6-6.9-0.9-11.3-0.9 c-4.4,0-8.1,0.3-11.3,0.9c-3.1,0.6-4.7,1.2-4.7,1.9c0,0.9,1.6,1.6,4.7,2.1c0.2,0.1,0.5,0.1,0.9,0.1v18.3c-0.4,0-0.7,0-0.9,0.1 c-3.1,0.6-4.7,1.3-4.7,2.1c0,0.8,1.6,1.5,4.7,2c0.2,0.1,0.5,0.1,0.9,0.1v18.3c-0.4,0.1-0.7,0.1-0.9,0.1c-3.1,0.6-4.7,1.2-4.7,2.1 s1.6,1.5,4.7,2c3.1,0.5,6.9,0.7,11.3,0.7c4.3,0,8.1-0.2,11.3-0.7c3.2-0.5,4.8-1.1,4.8-2s-1.6-1.5-4.8-2.1 c-0.4-0.1-0.9-0.1-1.3-0.2v-18.1c0.4-0.1,0.9-0.1,1.3-0.2c3.2-0.5,4.8-1.1,4.8-2c0-0.8-1.6-1.5-4.8-2.1c-0.4-0.1-0.9-0.1-1.3-0.2 v-18.1C-93.7,360.2-93.3,360.1-92.8,360.1z M-108.3,359.3c0-1.4,1.5-2.1,4.4-2.1c2.9,0,4.4,0.7,4.4,2.1v18.5 c-1.5-0.1-3-0.1-4.5-0.1s-3,0-4.3,0.1V359.3z M-99.5,401.9c0,1.4-1.5,2.1-4.4,2.1c-2.9,0-4.4-0.7-4.4-2.1v-18.5h8.8V401.9z M-97.2,381.7c-2,0.2-4.2,0.4-6.8,0.4c-2.6,0-4.9-0.1-6.8-0.4c-1.9-0.2-2.8-0.6-2.8-1s0.9-0.8,2.8-1.1c1.9-0.3,4.1-0.5,6.8-0.5 c2.6,0,4.8,0.2,6.8,0.5c2,0.3,3,0.7,3,1.1S-95.3,381.4-97.2,381.7z"/>
      <path class="st7"
            d="M-48.9,420.6c3.2-0.5,4.8-1.2,4.8-2.1c0-0.7-1.6-1.3-4.8-1.9c-3.2-0.6-6.9-0.9-11.3-0.9 c-4.4,0-8.1,0.3-11.3,0.9c-3.1,0.6-4.7,1.2-4.7,1.9c0,0.9,1.6,1.6,4.7,2.1c0.2,0.1,0.5,0.1,0.9,0.1V439c-0.4,0-0.7,0-0.9,0.1 c-3.1,0.6-4.7,1.3-4.7,2.1c0,0.8,1.6,1.5,4.7,2c0.2,0.1,0.5,0.1,0.9,0.1v18.3c-0.4,0.1-0.7,0.1-0.9,0.1c-3.1,0.6-4.7,1.2-4.7,2.1 s1.6,1.5,4.7,2c3.1,0.5,6.9,0.7,11.3,0.7c4.3,0,8.1-0.2,11.3-0.7c3.2-0.5,4.8-1.1,4.8-2s-1.6-1.5-4.8-2.1 c-0.4-0.1-0.9-0.1-1.3-0.2v-18.1c0.4-0.1,0.9-0.1,1.3-0.2c3.2-0.5,4.8-1.1,4.8-2c0-0.8-1.6-1.5-4.8-2.1c-0.4-0.1-0.9-0.1-1.3-0.2 v-18.1C-49.8,420.7-49.3,420.7-48.9,420.6z M-64.4,419.9c0-1.4,1.5-2.1,4.4-2.1c2.9,0,4.4,0.7,4.4,2.1v18.5 c-1.5-0.1-3-0.1-4.5-0.1s-3,0-4.3,0.1V419.9z M-55.6,462.4c0,1.4-1.5,2.1-4.4,2.1c-2.9,0-4.4-0.7-4.4-2.1v-18.5h8.8V462.4z M-53.3,442.2c-2,0.2-4.2,0.4-6.8,0.4c-2.6,0-4.9-0.1-6.8-0.4c-1.9-0.2-2.8-0.6-2.8-1s0.9-0.8,2.8-1.1c1.9-0.3,4.1-0.5,6.8-0.5 c2.6,0,4.8,0.2,6.8,0.5c2,0.3,3,0.7,3,1.1S-51.3,441.9-53.3,442.2z"/>
      <path class="st7"
            d="M-92.8,481.6c3.2-0.5,4.8-1.1,4.8-2c0-0.8-1.6-1.4-4.8-2c-3.2-0.6-6.9-0.8-11.3-0.8c-4.4,0-8.1,0.3-11.3,0.8 c-3.1,0.6-4.7,1.2-4.7,2c0,0.8,1.6,1.5,4.7,2c0.2,0.1,0.5,0.1,0.9,0.2V500c-0.4,0.1-0.7,0.1-0.9,0.2c-3.1,0.6-4.7,1.2-4.7,2 c0,0.8,1.6,1.5,4.7,2.1c0.2,0,0.5,0,0.9,0.1v18.2c-0.4,0.1-0.7,0.1-0.9,0.2c-3.1,0.6-4.7,1.2-4.7,2c0,0.8,1.6,1.5,4.7,2 c3.1,0.5,6.9,0.8,11.3,0.8c4.3,0,8.1-0.3,11.3-0.8c3.2-0.5,4.8-1.2,4.8-2c0-0.8-1.6-1.4-4.8-2c-0.4-0.1-0.9-0.2-1.3-0.2v-18.1 c0.4-0.1,0.9-0.2,1.3-0.2c3.2-0.6,4.8-1.2,4.8-2.1c0-0.8-1.6-1.4-4.8-2c-0.4-0.1-0.9-0.1-1.3-0.2v-18.2 C-93.7,481.7-93.3,481.6-92.8,481.6z M-108.3,480.9c0-1.4,1.5-2.1,4.4-2.1c2.9,0,4.4,0.7,4.4,2.1v18.5c-1.5-0.1-3-0.1-4.5-0.1 h-4.3V480.9z M-99.5,523.4c0,1.5-1.5,2.2-4.4,2.2c-2.9,0-4.4-0.7-4.4-2.2v-18.5c1.3,0.1,2.7,0.1,4.3,0.1s3,0,4.5-0.1V523.4z M-97.2,503.2c-2,0.3-4.2,0.4-6.8,0.4c-2.6,0-4.9-0.1-6.8-0.4c-1.9-0.3-2.8-0.6-2.8-1c0-0.3,0.9-0.7,2.8-1 c1.9-0.3,4.1-0.5,6.8-0.5c2.6,0,4.8,0.2,6.8,0.5c2,0.3,3,0.6,3,1C-94.3,502.6-95.3,502.9-97.2,503.2z"/>
      <path class="st7"
            d="M-48.9,481.6c3.2-0.5,4.8-1.1,4.8-2c0-0.8-1.6-1.4-4.8-2c-3.2-0.6-6.9-0.8-11.3-0.8c-4.4,0-8.1,0.3-11.3,0.8 c-3.1,0.6-4.7,1.2-4.7,2c0,0.8,1.6,1.5,4.7,2c0.2,0.1,0.5,0.1,0.9,0.2V500c-0.4,0.1-0.7,0.1-0.9,0.2c-3.1,0.6-4.7,1.2-4.7,2 c0,0.8,1.6,1.5,4.7,2.1c0.2,0,0.5,0,0.9,0.1v18.2c-0.4,0.1-0.7,0.1-0.9,0.2c-3.1,0.6-4.7,1.2-4.7,2c0,0.8,1.6,1.5,4.7,2 c3.1,0.5,6.9,0.8,11.3,0.8c4.3,0,8.1-0.3,11.3-0.8c3.2-0.5,4.8-1.2,4.8-2c0-0.8-1.6-1.4-4.8-2c-0.4-0.1-0.9-0.2-1.3-0.2v-18.1 c0.4-0.1,0.9-0.2,1.3-0.2c3.2-0.6,4.8-1.2,4.8-2.1c0-0.8-1.6-1.4-4.8-2c-0.4-0.1-0.9-0.1-1.3-0.2v-18.2 C-49.8,481.7-49.3,481.6-48.9,481.6z M-64.4,480.9c0-1.4,1.5-2.1,4.4-2.1c2.9,0,4.4,0.7,4.4,2.1v18.5c-1.5-0.1-3-0.1-4.5-0.1 h-4.3V480.9z M-55.6,523.4c0,1.5-1.5,2.2-4.4,2.2c-2.9,0-4.4-0.7-4.4-2.2v-18.5c1.3,0.1,2.7,0.1,4.3,0.1s3,0,4.5-0.1V523.4z M-53.3,503.2c-2,0.3-4.2,0.4-6.8,0.4c-2.6,0-4.9-0.1-6.8-0.4c-1.9-0.3-2.8-0.6-2.8-1c0-0.3,0.9-0.7,2.8-1 c1.9-0.3,4.1-0.5,6.8-0.5c2.6,0,4.8,0.2,6.8,0.5c2,0.3,3,0.6,3,1C-50.3,502.6-51.3,502.9-53.3,503.2z"/>
      <path class="st7"
            d="M-92.8,420.6c3.2-0.5,4.8-1.2,4.8-2.1c0-0.7-1.6-1.3-4.8-1.9c-3.2-0.6-6.9-0.9-11.3-0.9 c-4.4,0-8.1,0.3-11.3,0.9c-3.1,0.6-4.7,1.2-4.7,1.9c0,0.9,1.6,1.6,4.7,2.1c0.2,0.1,0.5,0.1,0.9,0.1V439c-0.4,0-0.7,0-0.9,0.1 c-3.1,0.6-4.7,1.3-4.7,2.1c0,0.8,1.6,1.5,4.7,2c0.2,0.1,0.5,0.1,0.9,0.1v18.3c-0.4,0.1-0.7,0.1-0.9,0.1c-3.1,0.6-4.7,1.2-4.7,2.1 s1.6,1.5,4.7,2c3.1,0.5,6.9,0.7,11.3,0.7c4.3,0,8.1-0.2,11.3-0.7c3.2-0.5,4.8-1.1,4.8-2s-1.6-1.5-4.8-2.1 c-0.4-0.1-0.9-0.1-1.3-0.2v-18.1c0.4-0.1,0.9-0.1,1.3-0.2c3.2-0.5,4.8-1.1,4.8-2c0-0.8-1.6-1.5-4.8-2.1c-0.4-0.1-0.9-0.1-1.3-0.2 v-18.1C-93.7,420.7-93.3,420.7-92.8,420.6z M-108.3,419.9c0-1.4,1.5-2.1,4.4-2.1c2.9,0,4.4,0.7,4.4,2.1v18.5 c-1.5-0.1-3-0.1-4.5-0.1s-3,0-4.3,0.1V419.9z M-99.5,462.4c0,1.4-1.5,2.1-4.4,2.1c-2.9,0-4.4-0.7-4.4-2.1v-18.5h8.8V462.4z M-97.2,442.2c-2,0.2-4.2,0.4-6.8,0.4c-2.6,0-4.9-0.1-6.8-0.4c-1.9-0.2-2.8-0.6-2.8-1s0.9-0.8,2.8-1.1c1.9-0.3,4.1-0.5,6.8-0.5 c2.6,0,4.8,0.2,6.8,0.5c2,0.3,3,0.7,3,1.1S-95.3,441.9-97.2,442.2z"/>
    </g>
  </g>
</svg>
