<?xml version="1.0" encoding="utf-8"?>
<svg version="1.1" id="svg2985" x="0px" y="0px" viewBox="-192 293.9 210 255"
     style="enable-background:new -192 293.9 210 255;" xmlns="http://www.w3.org/2000/svg">
  <style type="text/css">
    .st0{enable-background:new ;}
    .st1{fill:#005F00;}
    .st2{fill:#CDDACD;}
    .st3{fill:#FFFFFF;}
    .st4{fill:url(#rect3008_1_);}
    .st5{filter:url(#filter3970-5);}
    .st6{fill:url(#SVGID_1_);}
    .st7{fill:none;stroke:#038249;stroke-width:1.378;stroke-linecap:round;}
    .st8{fill:none;stroke:#038249;stroke-width:1.6285;stroke-linecap:round;}
    .st9{fill:none;stroke:#038249;stroke-width:1.5;}
    .st10{fill:#BF3718;stroke:#038249;stroke-width:1.5;stroke-linecap:round;}
  </style>
  <g>
    <filter width="1.2171124" height="1.2150326" y="-0.10751629" x="-0.10855621" id="filter3970-5"
            color-interpolation-filters="sRGB">
      <feGaussianBlur stdDeviation="0.12800763" id="feGaussianBlur3972-8"/>
    </filter>
    <g id="g4146" transform="translate(39.768324,209.71794)"/>
    <g id="g4630" transform="matrix(1.0005937,0,0,1,-1.3758072,203.40625)" class="st0">
      <g id="g3062">
        <g id="path3936" class="st5"/>
        <g id="g3855" transform="matrix(4.978042,0,0,4.9809829,1.6189719,-203.22023)" class="st0">
          <path id="path4291" class="st7"
                d=" M-8.4,88.5c0,6.9-5.6,12.5-12.5,12.5s-12.5-5.6-12.5-12.5S-27.8,76-20.9,76S-8.4,81.6-8.4,88.5z"/>
          <path id="path4295" class="st8"
                d=" M-10.3,88.5c0,5.8-4.7,10.6-10.6,10.6s-10.6-4.7-10.6-10.6c0-5.8,4.7-10.6,10.6-10.6S-10.3,82.7-10.3,88.5z"/>
          <path id="path4327" class="st9" d="M-20.9,78v3.6"/>
          <path id="path4346" class="st9" d="M-31.4,88.5h3.6"/>
          <path id="path4356" class="st9" d="M-20.9,99v-3.6"/>
          <path id="path4358" class="st9" d="M-10.4,88.5H-14"/>
          <path id="path4360" class="st9" d="M-28.3,81.1l2.5,2.5"/>
          <path id="path4362" class="st9" d="M-28.3,96l2.5-2.5"/>
          <path id="path4364" class="st9" d="M-13.5,96l-2.5-2.5"/>
          <path id="path4366" class="st9" d="M-13.5,81.1l-2.5,2.5"/>
          <path id="path4376" class="st9" d="M-24.9,78.8l1.4,3.3"/>
          <path id="path4378" class="st9" d="M-30.6,92.6l3.3-1.4"/>
          <path id="path4380" class="st9" d="M-16.9,98.2l-1.4-3.3"/>
          <path id="path4382" class="st9" d="M-11.2,84.5l-3.3,1.4"/>
          <path id="path4384" class="st9" d="M-30.6,84.5l3.3,1.4"/>
          <path id="path4386" class="st9" d="M-24.9,98.2l1.4-3.3"/>
          <path id="path4388" class="st9" d="M-11.2,92.6l-3.3-1.4"/>
          <path id="path4390" class="st9" d="M-16.9,78.8l-1.4,3.3"/>
          <path id="path4301" class="st10"
                d=" M-13.5,88.5c0,4.1-3.3,7.4-7.4,7.4s-7.4-3.3-7.4-7.4s3.3-7.4,7.4-7.4S-13.5,84.5-13.5,88.5z"/>
          <g id="g3849" transform="matrix(0.70710678,-0.70710678,0.70710678,0.70710678,-15.719501,21.112266)">
            <path id="path4497" class="st3"
                  d=" M-51.7,44c0,0-1.3,1.1-3,1.1c-1.6,0-3-1.1-3-1.1s1.3-1.1,3-1.1C-53.1,42.9-51.7,44-51.7,44z"/>
            <path id="path4533" class="st3"
                  d=" M-51,44c0,0,1.3-1.1,3-1.1c1.6,0,3,1.1,3,1.1s-1.3,1.1-3,1.1C-49.6,45.1-51,44-51,44z"/>
            <path id="path4575" class="st3"
                  d=" M-51.4,44.4c0,0,1.1,1.3,1.1,3s-1.1,3-1.1,3s-1.1-1.3-1.1-3C-52.5,45.7-51.4,44.4-51.4,44.4z"/>
            <path id="path4577" class="st3"
                  d=" M-51.4,43.6c0,0-1.1-1.3-1.1-3s1.1-3,1.1-3s1.1,1.3,1.1,3S-51.4,43.6-51.4,43.6z"/>
          </g>
        </g>
      </g>
    </g>
  </g>
</svg>
