<?xml version="1.0" encoding="utf-8"?>
<svg version="1.1" id="svg2985" x="0px" y="0px" viewBox="-192 293.9 210 255"
     style="enable-background:new -192 293.9 210 255;" xmlns="http://www.w3.org/2000/svg">
  <style type="text/css">
    .st0{enable-background:new ;}
    .st1{fill:#005F00;}
    .st2{fill:#CDDACD;}
    .st3{fill:#FFFFFF;}
    .st4{fill:url(#rect3008_1_);}
    .st5{filter:url(#filter3970-5);}
    .st6{fill:url(#SVGID_1_);}
    .st7{fill:#2A3B92;}
    .st8{fill:#038249;}
  </style>
  <g>
    <filter width="1.2171124" height="1.2150326" y="-0.10751629" x="-0.10855621" id="filter3970-5"
            color-interpolation-filters="sRGB">
      <feGaussianBlur stdDeviation="0.12800763" id="feGaussianBlur3972-8"/>
    </filter>
    <g id="g4146" transform="translate(39.768324,209.71794)"/>
    <g id="g4630" transform="matrix(1.0005937,0,0,1,-1.3758072,203.40625)" class="st0">
      <g id="g3062">
        <g id="path3936" class="st5"/>
        <g id="g3044" transform="matrix(0.99940665,0,0,1,1.3647732,-203.40737)" class="st0">
          <g id="g3889" transform="matrix(4.9777766,0,0,4.972155,0.31111757,-38.334965)">
            <path id="path4301" class="st7"
                  d="M-14.2,88.6c0,3.7-3,6.7-6.7,6.7s-6.7-3-6.7-6.7s3-6.7,6.7-6.7S-14.2,84.9-14.2,88.6z"/>
            <g id="g3847" transform="matrix(0.70710678,-0.70710678,0.70710678,0.70710678,-15.719501,21.112266)">
              <path id="path3849" class="st3"
                    d="M-51.8,44.1c0,0-1.2,1-2.7,1s-2.7-1-2.7-1s1.2-1,2.7-1S-51.8,44.1-51.8,44.1z"/>
              <path id="path3851" class="st3"
                    d="M-51.1,44.1c0,0,1.2-1,2.7-1c1.5,0,2.7,1,2.7,1s-1.2,1-2.7,1 C-49.9,45.1-51.1,44.1-51.1,44.1z"/>
              <path id="path3853" class="st3"
                    d="M-51.4,44.4c0,0,1,1.2,1,2.7s-1,2.7-1,2.7s-1-1.2-1-2.7S-51.4,44.4-51.4,44.4z"/>
              <path id="path3855" class="st3"
                    d="M-51.4,43.7c0,0-1-1.2-1-2.7s1-2.7,1-2.7s1,1.2,1,2.7S-51.4,43.7-51.4,43.7z"/>
            </g>
          </g>
          <g id="g3897" transform="matrix(4.9777766,0,0,4.972155,0.31111757,19.342034)">
            <g id="g3911" transform="translate(0,4)">
              <path id="path3899" class="st8"
                    d="M-14.2,88.6c0,3.7-3,6.7-6.7,6.7s-6.7-3-6.7-6.7s3-6.7,6.7-6.7S-14.2,84.9-14.2,88.6z"/>
              <g id="g3901" transform="matrix(0.70710678,-0.70710678,0.70710678,0.70710678,-15.719501,21.112266)">
                <path id="path3903" class="st3"
                      d="M-51.8,44.1c0,0-1.2,1-2.7,1s-2.7-1-2.7-1s1.2-1,2.7-1S-51.8,44.1-51.8,44.1z"/>
                <path id="path3905" class="st3"
                      d="M-51.1,44.1c0,0,1.2-1,2.7-1c1.5,0,2.7,1,2.7,1s-1.2,1-2.7,1 C-49.9,45.1-51.1,44.1-51.1,44.1z"/>
                <path id="path3907" class="st3"
                      d="M-51.4,44.4c0,0,1,1.2,1,2.7s-1,2.7-1,2.7s-1-1.2-1-2.7S-51.4,44.4-51.4,44.4z"/>
                <path id="path3909" class="st3"
                      d="M-51.4,43.7c0,0-1-1.2-1-2.7s1-2.7,1-2.7s1,1.2,1,2.7S-51.4,43.7-51.4,43.7z"/>
              </g>
            </g>
          </g>
        </g>
      </g>
    </g>
  </g>
</svg>
