<?xml version="1.0" encoding="utf-8"?>
<svg version="1.1" id="svg2985" x="0px" y="0px" viewBox="-192 293.9 210 255"
     style="enable-background:new -192 293.9 210 255;" xmlns="http://www.w3.org/2000/svg">
  <style type="text/css">
    .st0{enable-background:new ;}
    .st1{fill:#005F00;}
    .st2{fill:#CDDACD;}
    .st3{fill:#FFFFFF;}
    .st4{fill:url(#rect3008_1_);}
    .st5{filter:url(#filter3970-5);}
    .st6{fill:url(#SVGID_1_);}
    .st7{fill:#BF3718;}
    .st8{fill:#2A3B92;}
    .st9{fill:#038249;}
  </style>
  <g>
    <filter width="1.2171124" height="1.2150326" y="-0.10751629" x="-0.10855621" id="filter3970-5"
            color-interpolation-filters="sRGB">
      <feGaussianBlur stdDeviation="0.12800763" id="feGaussianBlur3972-8"/>
    </filter>
    <g id="g4146" transform="translate(39.768324,209.71794)"/>
    <g id="g4630" transform="matrix(1.0005937,0,0,1,-1.3758072,203.40625)" class="st0">
      <g id="g3062">
        <g id="path3936" class="st5"/>
        <g id="g3383" transform="matrix(0.99247345,0,0,1,-0.32553784,-201.68421)" class="st0">
          <g id="g3897" transform="matrix(4.2507271,0,0,4.2639665,13.115648,4.2949597)">
            <g id="g3911" transform="translate(0,4)">
              <path id="path3899" class="st7"
                    d="M-21.1,98.5c0,3.7-3,6.7-6.7,6.7s-6.7-3-6.7-6.7s3-6.7,6.7-6.7S-21.1,94.7-21.1,98.5z"/>
              <g id="g3901" transform="matrix(0.70710678,-0.70710678,0.70710678,0.70710678,-15.719501,21.112266)">
                <path id="path3903" class="st3"
                      d="M-63.6,46.1c0,0-1.2,1-2.7,1c-1.5,0-2.7-1-2.7-1s1.2-1,2.7-1 C-64.8,45.1-63.6,46.1-63.6,46.1z"/>
                <path id="path3905" class="st3"
                      d="M-62.9,46.1c0,0,1.2-1,2.7-1c1.5,0,2.7,1,2.7,1s-1.2,1-2.7,1S-62.9,46.1-62.9,46.1z"/>
                <path id="path3907" class="st3"
                      d="M-63.3,46.5c0,0,1,1.2,1,2.7c0,1.5-1,2.7-1,2.7s-1-1.2-1-2.7 C-64.3,47.7-63.3,46.5-63.3,46.5z"/>
                <path id="path3909" class="st3"
                      d="M-63.3,45.8c0,0-1-1.2-1-2.7c0-1.5,1-2.7,1-2.7s1,1.2,1,2.7 C-62.3,44.5-63.3,45.8-63.3,45.8z"/>
              </g>
            </g>
          </g>
          <g id="g3977" transform="matrix(4.2507271,0,0,4.2639665,-21.95826,-48.946799)">
            <g id="g3979" transform="translate(0,4)">
              <path id="path3981" class="st8"
                    d="M-21.1,98.5c0,3.7-3,6.7-6.7,6.7s-6.7-3-6.7-6.7s3-6.7,6.7-6.7S-21.1,94.7-21.1,98.5z"/>
              <g id="g3983" transform="matrix(0.70710678,-0.70710678,0.70710678,0.70710678,-15.719501,21.112266)">
                <path id="path3985" class="st3"
                      d="M-63.6,46.1c0,0-1.2,1-2.7,1c-1.5,0-2.7-1-2.7-1s1.2-1,2.7-1 C-64.8,45.1-63.6,46.1-63.6,46.1z"/>
                <path id="path3987" class="st3"
                      d="M-62.9,46.1c0,0,1.2-1,2.7-1s2.7,1,2.7,1s-1.2,1-2.7,1S-62.9,46.1-62.9,46.1z"/>
                <path id="path3989" class="st3"
                      d="M-63.3,46.5c0,0,1,1.2,1,2.7s-1,2.7-1,2.7s-1-1.2-1-2.7S-63.3,46.5-63.3,46.5z"/>
                <path id="path3991" class="st3"
                      d="M-63.3,45.8c0,0-1-1.2-1-2.7c0-1.5,1-2.7,1-2.7s1,1.2,1,2.7 C-62.3,44.5-63.3,45.8-63.3,45.8z"/>
              </g>
            </g>
          </g>
          <g id="g3993" transform="matrix(4.2507271,0,0,4.2639665,52.845381,54.11181)">
            <g id="g3995" transform="translate(0,4)">
              <path id="path3997" class="st9"
                    d="M-21.1,98.5c0,3.7-3,6.7-6.7,6.7s-6.7-3-6.7-6.7s3-6.7,6.7-6.7S-21.1,94.7-21.1,98.5z"/>
              <g id="g3999" transform="matrix(0.70710678,-0.70710678,0.70710678,0.70710678,-15.719501,21.112266)">
                <path id="path4001" class="st3"
                      d="M-63.6,46.1c0,0-1.2,1-2.7,1c-1.5,0-2.7-1-2.7-1s1.2-1,2.7-1 C-64.8,45.1-63.6,46.1-63.6,46.1z"/>
                <path id="path4003" class="st3"
                      d="M-62.9,46.1c0,0,1.2-1,2.7-1c1.5,0,2.7,1,2.7,1s-1.2,1-2.7,1 C-61.7,47.1-62.9,46.1-62.9,46.1z"/>
                <path id="path4005" class="st3"
                      d="M-63.3,46.5c0,0,1,1.2,1,2.7c0,1.5-1,2.7-1,2.7s-1-1.2-1-2.7 C-64.3,47.7-63.3,46.5-63.3,46.5z"/>
                <path id="path4007" class="st3"
                      d="M-63.3,45.8c0,0-1-1.2-1-2.7c0-1.5,1-2.7,1-2.7s1,1.2,1,2.7 C-62.3,44.5-63.3,45.8-63.3,45.8z"/>
              </g>
            </g>
          </g>
        </g>
      </g>
    </g>
  </g>
</svg>
