<?xml version="1.0" encoding="utf-8"?>
<svg version="1.1" id="svg2985" x="0px" y="0px" viewBox="-192 293.9 210 255"
     style="enable-background:new -192 293.9 210 255;" xmlns="http://www.w3.org/2000/svg">
  <style type="text/css">
    .st0{enable-background:new ;}
    .st1{fill:#005F00;}
    .st2{fill:#CDDACD;}
    .st3{fill:#FFFFFF;}
    .st4{fill:url(#rect3008_1_);}
    .st5{filter:url(#filter3970-5);}
    .st6{fill:url(#SVGID_1_);}
    .st7{fill:#2A3B92;}
    .st8{fill:#038249;}
    .st9{fill:#BF3718;}
  </style>
  <g>
    <filter width="1.2171124" height="1.2150326" color-interpolation-filters="sRGB" id="filter3970-5" x="-0.10855621"
            y="-0.10751629">
      <feGaussianBlur stdDeviation="0.12800763" id="feGaussianBlur3972-8"/>
    </filter>
    <g id="g4146" transform="translate(39.768324,209.71794)"/>
    <g id="g4630" transform="matrix(1.0005937,0,0,1,-1.3758072,203.40625)" class="st0">
      <g id="g3062">
        <g id="path3936" class="st5"/>
        <g id="g3661" transform="matrix(4.9632705,0,0,4.981685,220.28538,-219.44637)" class="st0">
          <g id="g3889" transform="matrix(0.74428571,0,0,0.74428571,-33.497498,1.8045605)">
            <path id="path4301" class="st7"
                  d="M-27.6,108.8c0,3.7-3,6.7-6.7,6.7s-6.7-3-6.7-6.7s3-6.7,6.7-6.7S-27.6,105.1-27.6,108.8z"/>
            <g id="g3847" transform="matrix(0.70710678,-0.70710678,0.70710678,0.70710678,-15.719501,21.112266)">
              <path id="path3849" class="st3"
                    d="M-75.5,48.8c0,0-1.2,1-2.7,1c-1.5,0-2.7-1-2.7-1s1.2-1,2.7-1 C-76.7,47.8-75.5,48.8-75.5,48.8z"/>
              <path id="path3851" class="st3"
                    d="M-74.8,48.8c0,0,1.2-1,2.7-1c1.5,0,2.7,1,2.7,1s-1.2,1-2.7,1 C-73.6,49.8-74.8,48.8-74.8,48.8z"/>
              <path id="path3853" class="st3"
                    d="M-75.2,49.2c0,0,1,1.2,1,2.7s-1,2.7-1,2.7s-1-1.2-1-2.7S-75.2,49.2-75.2,49.2z"/>
              <path id="path3855" class="st3"
                    d="M-75.2,48.5c0,0-1-1.2-1-2.7s1-2.7,1-2.7s1,1.2,1,2.7S-75.2,48.5-75.2,48.5z"/>
            </g>
          </g>
          <g id="g5324" transform="matrix(0.74428571,0,0,0.74428571,-45.497498,1.8045605)">
            <path id="path5326" class="st8"
                  d="M-27.6,108.8c0,3.7-3,6.7-6.7,6.7s-6.7-3-6.7-6.7s3-6.7,6.7-6.7S-27.6,105.1-27.6,108.8z"/>
            <g id="g5328" transform="matrix(0.70710678,-0.70710678,0.70710678,0.70710678,-15.719501,21.112266)">
              <path id="path5330" class="st3"
                    d="M-75.5,48.8c0,0-1.2,1-2.7,1c-1.5,0-2.7-1-2.7-1s1.2-1,2.7-1 C-76.7,47.8-75.5,48.8-75.5,48.8z"/>
              <path id="path5332" class="st3"
                    d="M-74.8,48.8c0,0,1.2-1,2.7-1c1.5,0,2.7,1,2.7,1s-1.2,1-2.7,1 C-73.6,49.8-74.8,48.8-74.8,48.8z"/>
              <path id="path5334" class="st3"
                    d="M-75.2,49.2c0,0,1,1.2,1,2.7s-1,2.7-1,2.7s-1-1.2-1-2.7S-75.2,49.2-75.2,49.2z"/>
              <path id="path5336" class="st3"
                    d="M-75.2,48.5c0,0-1-1.2-1-2.7c0-1.5,1-2.7,1-2.7s1,1.2,1,2.7S-75.2,48.5-75.2,48.5z"/>
            </g>
          </g>
          <g id="g5340" transform="matrix(0.74428571,0,0,0.74428571,-45.497498,19.804561)">
            <path id="path5342" class="st7"
                  d="M-27.6,108.8c0,3.7-3,6.7-6.7,6.7s-6.7-3-6.7-6.7s3-6.7,6.7-6.7S-27.6,105.1-27.6,108.8z"/>
            <g id="g5344" transform="matrix(0.70710678,-0.70710678,0.70710678,0.70710678,-15.719501,21.112266)">
              <path id="path5346" class="st3"
                    d="M-75.5,48.8c0,0-1.2,1-2.7,1c-1.5,0-2.7-1-2.7-1s1.2-1,2.7-1 C-76.7,47.8-75.5,48.8-75.5,48.8z"/>
              <path id="path5348" class="st3"
                    d="M-74.8,48.8c0,0,1.2-1,2.7-1s2.7,1,2.7,1s-1.2,1-2.7,1C-73.6,49.8-74.8,48.8-74.8,48.8z"/>
              <path id="path5350" class="st3"
                    d="M-75.2,49.2c0,0,1,1.2,1,2.7c0,1.5-1,2.7-1,2.7s-1-1.2-1-2.7 C-76.2,50.4-75.2,49.2-75.2,49.2z"/>
              <path id="path5352" class="st3"
                    d="M-75.2,48.5c0,0-1-1.2-1-2.7c0-1.5,1-2.7,1-2.7s1,1.2,1,2.7 C-74.2,47.3-75.2,48.5-75.2,48.5z"/>
            </g>
          </g>
          <g id="g5354" transform="matrix(0.74428571,0,0,0.74428571,-33.497498,19.804561)">
            <path id="path5356" class="st8"
                  d="M-27.6,108.8c0,3.7-3,6.7-6.7,6.7s-6.7-3-6.7-6.7s3-6.7,6.7-6.7S-27.6,105.1-27.6,108.8z"/>
            <g id="g5358" transform="matrix(0.70710678,-0.70710678,0.70710678,0.70710678,-15.719501,21.112266)">
              <path id="path5360" class="st3"
                    d="M-75.5,48.8c0,0-1.2,1-2.7,1c-1.5,0-2.7-1-2.7-1s1.2-1,2.7-1 C-76.7,47.8-75.5,48.8-75.5,48.8z"/>
              <path id="path5362" class="st3"
                    d="M-74.8,48.8c0,0,1.2-1,2.7-1c1.5,0,2.7,1,2.7,1s-1.2,1-2.7,1 C-73.6,49.8-74.8,48.8-74.8,48.8z"/>
              <path id="path5364" class="st3"
                    d="M-75.2,49.2c0,0,1,1.2,1,2.7s-1,2.7-1,2.7s-1-1.2-1-2.7S-75.2,49.2-75.2,49.2z"/>
              <path id="path5366" class="st3"
                    d="M-75.2,48.5c0,0-1-1.2-1-2.7c0-1.5,1-2.7,1-2.7s1,1.2,1,2.7S-75.2,48.5-75.2,48.5z"/>
            </g>
          </g>
        </g>
        <g id="g3081" transform="translate(-1.0827631e-8,-4.1839844e-6)" class="st0">
          <path id="path5370" class="st9"
                d="M-77.7,237.8c0,13.7-11.1,24.9-24.9,24.9s-24.9-11.1-24.9-24.9s11.1-24.9,24.9-24.9 S-77.7,224-77.7,237.8z"/>
          <g id="g5372" transform="matrix(2.618197,-2.6167928,2.618197,2.6167928,-34.107366,-87.281743)" class="st0">
            <path id="path5374" class="st3" d="M-75.5,49c0,0-1.2,1-2.7,1s-2.7-1-2.7-1s1.2-1,2.7-1S-75.5,49-75.5,49z"/>
            <path id="path5376" class="st3" d="M-74.8,49c0,0,1.2-1,2.7-1s2.7,1,2.7,1s-1.2,1-2.7,1S-74.8,49-74.8,49z"/>
            <path id="path5378" class="st3"
                  d="M-75.2,49.4c0,0,1,1.2,1,2.7s-1,2.7-1,2.7s-1-1.2-1-2.7C-76.2,50.6-75.2,49.4-75.2,49.4z"/>
            <path id="path5380" class="st3"
                  d="M-75.2,48.7c0,0-1-1.2-1-2.7c0-1.5,1-2.7,1-2.7s1,1.2,1,2.7 C-74.2,47.5-75.2,48.7-75.2,48.7z"/>
          </g>
        </g>
      </g>
    </g>
  </g>
</svg>
