<?xml version="1.0" encoding="utf-8"?>
<svg version="1.1" id="svg2985" x="0px" y="0px" viewBox="-192 293.9 210 255"
     style="enable-background:new -192 293.9 210 255;" xmlns="http://www.w3.org/2000/svg">
  <style type="text/css">
    .st0{enable-background:new ;}
    .st1{fill:#005F00;}
    .st2{fill:#CDDACD;}
    .st3{fill:#FFFFFF;}
    .st4{fill:url(#rect3008_1_);}
    .st5{filter:url(#filter3970-5);}
    .st6{fill:url(#SVGID_1_);}
    .st7{fill:#BF3718;}
    .st8{fill:#038249;}
  </style>
  <g>
    <filter height="1.2150326" width="1.2171124" id="filter3970-5" x="-0.10855621" y="-0.10751629"
            color-interpolation-filters="sRGB">
      <feGaussianBlur stdDeviation="0.12800763" id="feGaussianBlur3972-8"/>
    </filter>
    <g id="g4146" transform="translate(39.768324,209.71794)"/>
    <g id="g4630" transform="matrix(1.0005937,0,0,1,-1.3758072,203.40625)" class="st0">
      <g id="g3062">
        <g id="path3936" class="st5"/>
        <g id="g5676" transform="matrix(4.974823,0,0,4.972155,211.38832,-208.89007)" class="st0">
          <g id="g5368" transform="matrix(0.74428571,0,0,0.74428571,-31.898042,8.7448058)">
            <path id="path5370" class="st7"
                  d="M-27.5,110c0,3.7-3,6.7-6.7,6.7s-6.7-3-6.7-6.7s3-6.7,6.7-6.7S-27.5,106.3-27.5,110z"/>
            <g id="g5372" transform="matrix(0.70710678,-0.70710678,0.70710678,0.70710678,-15.719501,21.112266)">
              <path id="path5374" class="st3"
                    d="M-76.3,49.8c0,0-1.2,1-2.7,1c-1.5,0-2.7-1-2.7-1s1.2-1,2.7-1 C-77.5,48.8-76.3,49.8-76.3,49.8z"/>
              <path id="path5376" class="st3"
                    d="M-75.6,49.8c0,0,1.2-1,2.7-1c1.5,0,2.7,1,2.7,1s-1.2,1-2.7,1 C-74.4,50.8-75.6,49.8-75.6,49.8z"/>
              <path id="path5378" class="st3"
                    d="M-75.9,50.2c0,0,1,1.2,1,2.7s-1,2.7-1,2.7s-1-1.2-1-2.7C-76.9,51.4-75.9,50.2-75.9,50.2z"/>
              <path id="path5380" class="st3"
                    d="M-75.9,49.5c0,0-1-1.2-1-2.7s1-2.7,1-2.7s1,1.2,1,2.7S-75.9,49.5-75.9,49.5z"/>
            </g>
          </g>
          <g id="g5432" transform="matrix(0.74428571,0,0,0.74428571,-43.397603,8.7448058)">
            <path id="path5434" class="st7"
                  d="M-27.5,110c0,3.7-3,6.7-6.7,6.7c-3.7,0-6.7-3-6.7-6.7s3-6.7,6.7-6.7 C-30.5,103.3-27.5,106.3-27.5,110z"/>
            <g id="g5436" transform="matrix(0.70710678,-0.70710678,0.70710678,0.70710678,-15.719501,21.112266)">
              <path id="path5438" class="st3"
                    d="M-76.3,49.8c0,0-1.2,1-2.7,1c-1.5,0-2.7-1-2.7-1s1.2-1,2.7-1 C-77.5,48.8-76.3,49.8-76.3,49.8z"/>
              <path id="path5440" class="st3"
                    d="M-75.6,49.8c0,0,1.2-1,2.7-1s2.7,1,2.7,1s-1.2,1-2.7,1S-75.6,49.8-75.6,49.8z"/>
              <path id="path5442" class="st3"
                    d="M-75.9,50.2c0,0,1,1.2,1,2.7s-1,2.7-1,2.7s-1-1.2-1-2.7S-75.9,50.2-75.9,50.2z"/>
              <path id="path5444" class="st3"
                    d="M-75.9,49.5c0,0-1-1.2-1-2.7s1-2.7,1-2.7s1,1.2,1,2.7S-75.9,49.5-75.9,49.5z"/>
            </g>
          </g>
          <g id="g5446" transform="matrix(0.74428571,0,0,0.74428571,-31.898042,19.544313)">
            <path id="path5448" class="st7"
                  d="M-27.5,110c0,3.7-3,6.7-6.7,6.7s-6.7-3-6.7-6.7s3-6.7,6.7-6.7S-27.5,106.3-27.5,110z"/>
            <g id="g5450" transform="matrix(0.70710678,-0.70710678,0.70710678,0.70710678,-15.719501,21.112266)">
              <path id="path5452" class="st3"
                    d="M-76.3,49.8c0,0-1.2,1-2.7,1c-1.5,0-2.7-1-2.7-1s1.2-1,2.7-1 C-77.5,48.8-76.3,49.8-76.3,49.8z"/>
              <path id="path5454" class="st3"
                    d="M-75.6,49.8c0,0,1.2-1,2.7-1c1.5,0,2.7,1,2.7,1s-1.2,1-2.7,1 C-74.4,50.8-75.6,49.8-75.6,49.8z"/>
              <path id="path5456" class="st3"
                    d="M-75.9,50.2c0,0,1,1.2,1,2.7s-1,2.7-1,2.7s-1-1.2-1-2.7C-76.9,51.4-75.9,50.2-75.9,50.2z"/>
              <path id="path5458" class="st3"
                    d="M-75.9,49.5c0,0-1-1.2-1-2.7s1-2.7,1-2.7s1,1.2,1,2.7S-75.9,49.5-75.9,49.5z"/>
            </g>
          </g>
          <g id="g5460" transform="matrix(0.74428571,0,0,0.74428571,-43.397603,19.544313)">
            <path id="path5462" class="st7"
                  d="M-27.5,110c0,3.7-3,6.7-6.7,6.7c-3.7,0-6.7-3-6.7-6.7s3-6.7,6.7-6.7 C-30.5,103.3-27.5,106.3-27.5,110z"/>
            <g id="g5464" transform="matrix(0.70710678,-0.70710678,0.70710678,0.70710678,-15.719501,21.112266)">
              <path id="path5466" class="st3"
                    d="M-76.3,49.8c0,0-1.2,1-2.7,1c-1.5,0-2.7-1-2.7-1s1.2-1,2.7-1 C-77.5,48.8-76.3,49.8-76.3,49.8z"/>
              <path id="path5468" class="st3"
                    d="M-75.6,49.8c0,0,1.2-1,2.7-1s2.7,1,2.7,1s-1.2,1-2.7,1S-75.6,49.8-75.6,49.8z"/>
              <path id="path5470" class="st3"
                    d="M-75.9,50.2c0,0,1,1.2,1,2.7s-1,2.7-1,2.7s-1-1.2-1-2.7S-75.9,50.2-75.9,50.2z"/>
              <path id="path5472" class="st3"
                    d="M-75.9,49.5c0,0-1-1.2-1-2.7s1-2.7,1-2.7s1,1.2,1,2.7S-75.9,49.5-75.9,49.5z"/>
            </g>
          </g>
          <g id="g5474" transform="matrix(0.74428571,0,0,0.74428571,-31.898042,-2.0556869)">
            <path id="path5476" class="st8"
                  d="M-27.5,107.9c0,3.7-3,6.7-6.7,6.7s-6.7-3-6.7-6.7s3-6.7,6.7-6.7S-27.5,104.2-27.5,107.9z"/>
            <g id="g5478" transform="matrix(0.70710678,-0.70710678,0.70710678,0.70710678,-15.719501,21.112266)">
              <path id="path5480" class="st3"
                    d="M-74.8,48.3c0,0-1.2,1-2.7,1c-1.5,0-2.7-1-2.7-1s1.2-1,2.7-1 C-76,47.3-74.8,48.3-74.8,48.3z"/>
              <path id="path5482" class="st3"
                    d="M-74.1,48.3c0,0,1.2-1,2.7-1c1.5,0,2.7,1,2.7,1s-1.2,1-2.7,1 C-72.9,49.3-74.1,48.3-74.1,48.3z"/>
              <path id="path5484" class="st3"
                    d="M-74.4,48.6c0,0,1,1.2,1,2.7c0,1.5-1,2.7-1,2.7s-1-1.2-1-2.7S-74.4,48.6-74.4,48.6z"/>
              <path id="path5486" class="st3"
                    d="M-74.4,47.9c0,0-1-1.2-1-2.7s1-2.7,1-2.7s1,1.2,1,2.7C-73.4,46.7-74.4,47.9-74.4,47.9z"/>
            </g>
          </g>
          <g id="g5488" transform="matrix(0.74428571,0,0,0.74428571,-43.397603,-2.0556869)">
            <path id="path5490" class="st8"
                  d="M-27.5,107.9c0,3.7-3,6.7-6.7,6.7c-3.7,0-6.7-3-6.7-6.7s3-6.7,6.7-6.7 C-30.5,101.1-27.5,104.2-27.5,107.9z"/>
            <g id="g5492" transform="matrix(0.70710678,-0.70710678,0.70710678,0.70710678,-15.719501,21.112266)">
              <path id="path5494" class="st3"
                    d="M-74.8,48.3c0,0-1.2,1-2.7,1c-1.5,0-2.7-1-2.7-1s1.2-1,2.7-1 C-76,47.3-74.8,48.3-74.8,48.3z"/>
              <path id="path5496" class="st3"
                    d="M-74.1,48.3c0,0,1.2-1,2.7-1c1.5,0,2.7,1,2.7,1s-1.2,1-2.7,1 C-72.9,49.3-74.1,48.3-74.1,48.3z"/>
              <path id="path5498" class="st3"
                    d="M-74.4,48.6c0,0,1,1.2,1,2.7c0,1.5-1,2.7-1,2.7s-1-1.2-1-2.7 C-75.4,49.8-74.4,48.6-74.4,48.6z"/>
              <path id="path5500" class="st3"
                    d="M-74.4,47.9c0,0-1-1.2-1-2.7s1-2.7,1-2.7s1,1.2,1,2.7C-73.4,46.7-74.4,47.9-74.4,47.9z"/>
            </g>
          </g>
        </g>
      </g>
    </g>
  </g>
</svg>
