<?xml version="1.0" encoding="utf-8"?>
<svg version="1.1" id="svg2985" x="0px" y="0px" viewBox="-192 293.9 210 255"
     style="enable-background:new -192 293.9 210 255;" xmlns="http://www.w3.org/2000/svg">
  <style type="text/css">
    .st0{enable-background:new ;}
    .st1{fill:#005F00;}
    .st2{fill:#CDDACD;}
    .st3{fill:#FFFFFF;}
    .st4{fill:url(#rect3008_1_);}
    .st5{filter:url(#filter3970-5);}
    .st6{fill:url(#SVGID_1_);}
    .st7{fill:#BF3718;}
    .st8{fill:#038249;}
  </style>
  <g>
    <filter width="1.2171124" height="1.2150326" y="-0.10751629" x="-0.10855621" id="filter3970-5"
            color-interpolation-filters="sRGB">
      <feGaussianBlur stdDeviation="0.12800763" id="feGaussianBlur3972-8"/>
    </filter>
    <g id="g4146" transform="translate(39.768324,209.71794)"/>
    <g id="g4630" transform="matrix(1.0005937,0,0,1,-1.3758072,203.40625)" class="st0">
      <g id="g3062">
        <g id="path3936" class="st5"/>
        <g id="g5021" transform="matrix(0.99940665,0,0,1,1.3647357,-203.39385)" class="st0">
          <g id="g5432" transform="matrix(2.9639036,0,0,2.9676907,60.694401,76.783271)">
            <path id="path5434" class="st7"
                  d="M-40.4,128.6c0,3.7-3,6.7-6.7,6.7s-6.7-3-6.7-6.7c0-3.7,3-6.7,6.7-6.7 S-40.4,124.9-40.4,128.6z"/>
            <g id="g5436" transform="matrix(0.70710678,-0.70710678,0.70710678,0.70710678,-15.719501,21.112266)">
              <path id="path5438" class="st3"
                    d="M-98.6,53.7c0,0-1.2,1-2.7,1c-1.5,0-2.7-1-2.7-1s1.2-1,2.7-1 C-99.8,52.7-98.6,53.7-98.6,53.7z"/>
              <path id="path5440" class="st3"
                    d="M-97.9,53.7c0,0,1.2-1,2.7-1s2.7,1,2.7,1s-1.2,1-2.7,1S-97.9,53.7-97.9,53.7z"/>
              <path id="path5442" class="st3"
                    d="M-98.2,54.1c0,0,1,1.2,1,2.7s-1,2.7-1,2.7s-1-1.2-1-2.7S-98.2,54.1-98.2,54.1z"/>
              <path id="path5444" class="st3"
                    d="M-98.2,53.4c0,0-1-1.2-1-2.7c0-1.5,1-2.7,1-2.7s1,1.2,1,2.7 C-97.2,52.2-98.2,53.4-98.2,53.4z"/>
            </g>
          </g>
          <g id="g5773" transform="matrix(2.9639036,0,0,2.9676907,10.916975,76.783271)">
            <path id="path5775" class="st7"
                  d="M-40.4,128.6c0,3.7-3,6.7-6.7,6.7s-6.7-3-6.7-6.7c0-3.7,3-6.7,6.7-6.7 S-40.4,124.9-40.4,128.6z"/>
            <g id="g5777" transform="matrix(0.70710678,-0.70710678,0.70710678,0.70710678,-15.719501,21.112266)">
              <path id="path5779" class="st3"
                    d="M-98.6,53.7c0,0-1.2,1-2.7,1c-1.5,0-2.7-1-2.7-1s1.2-1,2.7-1 C-99.8,52.7-98.6,53.7-98.6,53.7z"/>
              <path id="path5781" class="st3"
                    d="M-97.9,53.7c0,0,1.2-1,2.7-1s2.7,1,2.7,1s-1.2,1-2.7,1S-97.9,53.7-97.9,53.7z"/>
              <path id="path5783" class="st3"
                    d="M-98.2,54.1c0,0,1,1.2,1,2.7s-1,2.7-1,2.7s-1-1.2-1-2.7S-98.2,54.1-98.2,54.1z"/>
              <path id="path5785" class="st3"
                    d="M-98.2,53.4c0,0-1-1.2-1-2.7c0-1.5,1-2.7,1-2.7s1,1.2,1,2.7 C-97.2,52.2-98.2,53.4-98.2,53.4z"/>
            </g>
          </g>
          <g id="g5787" transform="matrix(2.9639036,0,0,2.9676907,60.694401,124.13076)">
            <path id="path5789" class="st7"
                  d="M-40.4,128.6c0,3.7-3,6.7-6.7,6.7s-6.7-3-6.7-6.7c0-3.7,3-6.7,6.7-6.7 S-40.4,124.9-40.4,128.6z"/>
            <g id="g5791" transform="matrix(0.70710678,-0.70710678,0.70710678,0.70710678,-15.719501,21.112266)">
              <path id="path5793" class="st3"
                    d="M-98.6,53.7c0,0-1.2,1-2.7,1c-1.5,0-2.7-1-2.7-1s1.2-1,2.7-1 C-99.8,52.7-98.6,53.7-98.6,53.7z"/>
              <path id="path5795" class="st3"
                    d="M-97.9,53.7c0,0,1.2-1,2.7-1s2.7,1,2.7,1s-1.2,1-2.7,1S-97.9,53.7-97.9,53.7z"/>
              <path id="path5797" class="st3"
                    d="M-98.2,54.1c0,0,1,1.2,1,2.7s-1,2.7-1,2.7s-1-1.2-1-2.7S-98.2,54.1-98.2,54.1z"/>
              <path id="path5799" class="st3"
                    d="M-98.2,53.4c0,0-1-1.2-1-2.7c0-1.5,1-2.7,1-2.7s1,1.2,1,2.7 C-97.2,52.2-98.2,53.4-98.2,53.4z"/>
            </g>
          </g>
          <g id="g5801" transform="matrix(2.9639036,0,0,2.9676907,10.916975,124.13076)">
            <path id="path5803" class="st7"
                  d="M-40.4,128.6c0,3.7-3,6.7-6.7,6.7s-6.7-3-6.7-6.7c0-3.7,3-6.7,6.7-6.7 S-40.4,124.9-40.4,128.6z"/>
            <g id="g5805" transform="matrix(0.70710678,-0.70710678,0.70710678,0.70710678,-15.719501,21.112266)">
              <path id="path5807" class="st3"
                    d="M-98.6,53.7c0,0-1.2,1-2.7,1c-1.5,0-2.7-1-2.7-1s1.2-1,2.7-1 C-99.8,52.7-98.6,53.7-98.6,53.7z"/>
              <path id="path5809" class="st3"
                    d="M-97.9,53.7c0,0,1.2-1,2.7-1s2.7,1,2.7,1s-1.2,1-2.7,1S-97.9,53.7-97.9,53.7z"/>
              <path id="path5811" class="st3"
                    d="M-98.2,54.1c0,0,1,1.2,1,2.7s-1,2.7-1,2.7s-1-1.2-1-2.7S-98.2,54.1-98.2,54.1z"/>
              <path id="path5813" class="st3"
                    d="M-98.2,53.4c0,0-1-1.2-1-2.7c0-1.5,1-2.7,1-2.7s1,1.2,1,2.7 C-97.2,52.2-98.2,53.4-98.2,53.4z"/>
            </g>
          </g>
          <g id="g5488" transform="matrix(2.9639036,0,0,2.9676907,35.805687,15.063045)">
            <path id="path5490" class="st8"
                  d="M-40.4,128.6c0,3.7-3,6.7-6.7,6.7s-6.7-3-6.7-6.7c0-3.7,3-6.7,6.7-6.7 S-40.4,124.9-40.4,128.6z"/>
            <g id="g5492" transform="matrix(0.70710678,-0.70710678,0.70710678,0.70710678,-15.719501,21.112266)">
              <path id="path5494" class="st3"
                    d="M-98.6,53.7c0,0-1.2,1-2.7,1c-1.5,0-2.7-1-2.7-1s1.2-1,2.7-1 C-99.8,52.7-98.6,53.7-98.6,53.7z"/>
              <path id="path5496" class="st3"
                    d="M-97.9,53.7c0,0,1.2-1,2.7-1s2.7,1,2.7,1s-1.2,1-2.7,1S-97.9,53.7-97.9,53.7z"/>
              <path id="path5498" class="st3"
                    d="M-98.2,54.1c0,0,1,1.2,1,2.7s-1,2.7-1,2.7s-1-1.2-1-2.7S-98.2,54.1-98.2,54.1z"/>
              <path id="path5500" class="st3"
                    d="M-98.2,53.4c0,0-1-1.2-1-2.7c0-1.5,1-2.7,1-2.7s1,1.2,1,2.7 C-97.2,52.2-98.2,53.4-98.2,53.4z"/>
            </g>
          </g>
          <g id="g5887" transform="matrix(2.9639036,0,0,2.9676907,75.627805,34.999544)">
            <path id="path5889" class="st8"
                  d="M-40.4,128.6c0,3.7-3,6.7-6.7,6.7s-6.7-3-6.7-6.7c0-3.7,3-6.7,6.7-6.7 S-40.4,124.9-40.4,128.6z"/>
            <g id="g5891" transform="matrix(0.70710678,-0.70710678,0.70710678,0.70710678,-15.719501,21.112266)">
              <path id="path5893" class="st3"
                    d="M-98.6,53.7c0,0-1.2,1-2.7,1c-1.5,0-2.7-1-2.7-1s1.2-1,2.7-1 C-99.8,52.7-98.6,53.7-98.6,53.7z"/>
              <path id="path5895" class="st3"
                    d="M-97.9,53.7c0,0,1.2-1,2.7-1s2.7,1,2.7,1s-1.2,1-2.7,1S-97.9,53.7-97.9,53.7z"/>
              <path id="path5897" class="st3"
                    d="M-98.2,54.1c0,0,1,1.2,1,2.7s-1,2.7-1,2.7s-1-1.2-1-2.7S-98.2,54.1-98.2,54.1z"/>
              <path id="path5899" class="st3"
                    d="M-98.2,53.4c0,0-1-1.2-1-2.7c0-1.5,1-2.7,1-2.7s1,1.2,1,2.7 C-97.2,52.2-98.2,53.4-98.2,53.4z"/>
            </g>
          </g>
          <g id="g5901" transform="matrix(2.9639036,0,0,2.9676907,-4.0164353,-4.8734542)">
            <path id="path5903" class="st8"
                  d="M-40.4,128.6c0,3.7-3,6.7-6.7,6.7s-6.7-3-6.7-6.7c0-3.7,3-6.7,6.7-6.7 S-40.4,124.9-40.4,128.6z"/>
            <g id="g5905" transform="matrix(0.70710678,-0.70710678,0.70710678,0.70710678,-15.719501,21.112266)">
              <path id="path5907" class="st3"
                    d="M-98.6,53.7c0,0-1.2,1-2.7,1c-1.5,0-2.7-1-2.7-1s1.2-1,2.7-1 C-99.8,52.7-98.6,53.7-98.6,53.7z"/>
              <path id="path5909" class="st3"
                    d="M-97.9,53.7c0,0,1.2-1,2.7-1s2.7,1,2.7,1s-1.2,1-2.7,1S-97.9,53.7-97.9,53.7z"/>
              <path id="path5911" class="st3"
                    d="M-98.2,54.1c0,0,1,1.2,1,2.7s-1,2.7-1,2.7s-1-1.2-1-2.7S-98.2,54.1-98.2,54.1z"/>
              <path id="path5913" class="st3"
                    d="M-98.2,53.4c0,0-1-1.2-1-2.7c0-1.5,1-2.7,1-2.7s1,1.2,1,2.7 C-97.2,52.2-98.2,53.4-98.2,53.4z"/>
            </g>
          </g>
        </g>
      </g>
    </g>
  </g>
</svg>
