<?xml version="1.0" encoding="utf-8"?>
<svg version="1.1" id="svg2985" x="0px" y="0px" viewBox="-192 293.9 210 255"
     style="enable-background:new -192 293.9 210 255;" xmlns="http://www.w3.org/2000/svg">
  <style type="text/css">
    .st0{enable-background:new ;}
    .st1{fill:#005F00;}
    .st2{fill:#CDDACD;}
    .st3{fill:#FFFFFF;}
    .st4{fill:url(#rect3008_1_);}
    .st5{filter:url(#filter3970-5);}
    .st6{fill:url(#SVGID_1_);}
    .st7{fill:#2A3B92;}
  </style>
  <g>
    <filter width="1.2171124" height="1.2150326" y="-0.10751629" x="-0.10855621" id="filter3970-5"
            color-interpolation-filters="sRGB">
      <feGaussianBlur stdDeviation="0.12800763" id="feGaussianBlur3972-8"/>
    </filter>
    <g id="g4146" transform="translate(39.768324,209.71794)"/>
    <g id="g4630" transform="matrix(1.0005937,0,0,1,-1.3758072,203.40625)" class="st0">
      <g id="g3062">
        <g id="path3936" class="st5"/>
        <g id="g7265" transform="matrix(4.9748117,0,0,4.9841254,283.64404,-198.72141)" class="st0">
          <g id="g6764" transform="translate(-56.679158,-18.562712)">
            <path id="path5789" class="st7"
                  d="M-11.9,101.4c0,2.2-1.8,4-4,4s-4-1.8-4-4s1.8-4,4-4S-11.9,99.2-11.9,101.4z"/>
            <g id="g5791" transform="matrix(0.42103158,-0.42103158,0.42103158,0.42103158,2.770713,37.459859)">
              <path id="path5793" class="st3"
                    d="M-98.6,53.7c0,0-1.2,1-2.7,1c-1.5,0-2.7-1-2.7-1s1.2-1,2.7-1 C-99.8,52.7-98.6,53.7-98.6,53.7z"/>
              <path id="path5795" class="st3"
                    d="M-97.9,53.7c0,0,1.2-1,2.7-1c1.5,0,2.7,1,2.7,1s-1.2,1-2.7,1 C-96.6,54.7-97.9,53.7-97.9,53.7z"/>
              <path id="path5797" class="st3"
                    d="M-98.2,54.1c0,0,1,1.2,1,2.7c0,1.5-1,2.7-1,2.7s-1-1.2-1-2.7S-98.2,54.1-98.2,54.1z"/>
              <path id="path5799" class="st3"
                    d="M-98.2,53.4c0,0-1-1.2-1-2.7c0-1.5,1-2.7,1-2.7s1,1.2,1,2.7 C-97.2,52.2-98.2,53.4-98.2,53.4z"/>
            </g>
          </g>
          <g id="g5801" transform="matrix(0.59542857,0,0,0.59542857,-54.54856,6.3263011)">
            <path id="path5803" class="st7"
                  d="M-40.4,128.6c0,3.7-3,6.7-6.7,6.7c-3.7,0-6.7-3-6.7-6.7c0-3.7,3-6.7,6.7-6.7 C-43.4,121.8-40.4,124.9-40.4,128.6z"/>
            <g id="g5805" transform="matrix(0.70710678,-0.70710678,0.70710678,0.70710678,-15.719501,21.112266)">
              <path id="path5807" class="st3"
                    d="M-98.6,53.7c0,0-1.2,1-2.7,1s-2.7-1-2.7-1s1.2-1,2.7-1S-98.6,53.7-98.6,53.7z"/>
              <path id="path5809" class="st3"
                    d="M-97.9,53.7c0,0,1.2-1,2.7-1c1.5,0,2.7,1,2.7,1s-1.2,1-2.7,1 C-96.6,54.7-97.9,53.7-97.9,53.7z"/>
              <path id="path5811" class="st3"
                    d="M-98.2,54.1c0,0,1,1.2,1,2.7c0,1.5-1,2.7-1,2.7s-1-1.2-1-2.7 C-99.2,55.3-98.2,54.1-98.2,54.1z"/>
              <path id="path5813" class="st3"
                    d="M-98.2,53.4c0,0-1-1.2-1-2.7s1-2.7,1-2.7s1,1.2,1,2.7S-98.2,53.4-98.2,53.4z"/>
            </g>
          </g>
          <g id="g7181" transform="translate(-56.679158,-27.962763)">
            <path id="path7183" class="st7"
                  d="M-11.9,101.4c0,2.2-1.8,4-4,4s-4-1.8-4-4s1.8-4,4-4S-11.9,99.2-11.9,101.4z"/>
            <g id="g7185" transform="matrix(0.42103158,-0.42103158,0.42103158,0.42103158,2.770713,37.459859)">
              <path id="path7187" class="st3"
                    d="M-98.6,53.7c0,0-1.2,1-2.7,1c-1.5,0-2.7-1-2.7-1s1.2-1,2.7-1 C-99.8,52.7-98.6,53.7-98.6,53.7z"/>
              <path id="path7189" class="st3"
                    d="M-97.9,53.7c0,0,1.2-1,2.7-1c1.5,0,2.7,1,2.7,1s-1.2,1-2.7,1 C-96.6,54.7-97.9,53.7-97.9,53.7z"/>
              <path id="path7191" class="st3"
                    d="M-98.2,54.1c0,0,1,1.2,1,2.7s-1,2.7-1,2.7s-1-1.2-1-2.7S-98.2,54.1-98.2,54.1z"/>
              <path id="path7193" class="st3"
                    d="M-98.2,53.4c0,0-1-1.2-1-2.7s1-2.7,1-2.7s1,1.2,1,2.7S-98.2,53.4-98.2,53.4z"/>
            </g>
          </g>
          <g id="g7195" transform="matrix(0.59542857,0,0,0.59542857,-54.54856,-3.0737496)">
            <path id="path7197" class="st7"
                  d="M-40.4,128.6c0,3.7-3,6.7-6.7,6.7c-3.7,0-6.7-3-6.7-6.7c0-3.7,3-6.7,6.7-6.7 C-43.4,121.8-40.4,124.9-40.4,128.6z"/>
            <g id="g7199" transform="matrix(0.70710678,-0.70710678,0.70710678,0.70710678,-15.719501,21.112266)">
              <path id="path7201" class="st3"
                    d="M-98.6,53.7c0,0-1.2,1-2.7,1c-1.5,0-2.7-1-2.7-1s1.2-1,2.7-1 C-99.8,52.7-98.6,53.7-98.6,53.7z"/>
              <path id="path7203" class="st3"
                    d="M-97.9,53.7c0,0,1.2-1,2.7-1c1.5,0,2.7,1,2.7,1s-1.2,1-2.7,1 C-96.6,54.7-97.9,53.7-97.9,53.7z"/>
              <path id="path7205" class="st3"
                    d="M-98.2,54.1c0,0,1,1.2,1,2.7s-1,2.7-1,2.7s-1-1.2-1-2.7S-98.2,54.1-98.2,54.1z"/>
              <path id="path7207" class="st3"
                    d="M-98.2,53.4c0,0-1-1.2-1-2.7s1-2.7,1-2.7s1,1.2,1,2.7S-98.2,53.4-98.2,53.4z"/>
            </g>
          </g>
          <g id="g7209" transform="translate(-56.679158,-9.1627629)">
            <path id="path7211" class="st7"
                  d="M-11.9,101.4c0,2.2-1.8,4-4,4s-4-1.8-4-4s1.8-4,4-4S-11.9,99.2-11.9,101.4z"/>
            <g id="g7213" transform="matrix(0.42103158,-0.42103158,0.42103158,0.42103158,2.770713,37.459859)">
              <path id="path7215" class="st3"
                    d="M-98.6,53.7c0,0-1.2,1-2.7,1c-1.5,0-2.7-1-2.7-1s1.2-1,2.7-1 C-99.8,52.7-98.6,53.7-98.6,53.7z"/>
              <path id="path7217" class="st3"
                    d="M-97.9,53.7c0,0,1.2-1,2.7-1c1.5,0,2.7,1,2.7,1s-1.2,1-2.7,1 C-96.6,54.7-97.9,53.7-97.9,53.7z"/>
              <path id="path7219" class="st3"
                    d="M-98.2,54.1c0,0,1,1.2,1,2.7c0,1.5-1,2.7-1,2.7s-1-1.2-1-2.7 C-99.2,55.3-98.2,54.1-98.2,54.1z"/>
              <path id="path7221" class="st3"
                    d="M-98.2,53.4c0,0-1-1.2-1-2.7s1-2.7,1-2.7s1,1.2,1,2.7S-98.2,53.4-98.2,53.4z"/>
            </g>
          </g>
          <g id="g7223" transform="matrix(0.59542857,0,0,0.59542857,-54.54856,15.72625)">
            <path id="path7225" class="st7"
                  d="M-40.4,128.6c0,3.7-3,6.7-6.7,6.7c-3.7,0-6.7-3-6.7-6.7c0-3.7,3-6.7,6.7-6.7 C-43.4,121.8-40.4,124.9-40.4,128.6z"/>
            <g id="g7227" transform="matrix(0.70710678,-0.70710678,0.70710678,0.70710678,-15.719501,21.112266)">
              <path id="path7229" class="st3"
                    d="M-98.6,53.7c0,0-1.2,1-2.7,1c-1.5,0-2.7-1-2.7-1s1.2-1,2.7-1 C-99.8,52.7-98.6,53.7-98.6,53.7z"/>
              <path id="path7231" class="st3"
                    d="M-97.9,53.7c0,0,1.2-1,2.7-1c1.5,0,2.7,1,2.7,1s-1.2,1-2.7,1 C-96.6,54.7-97.9,53.7-97.9,53.7z"/>
              <path id="path7233" class="st3"
                    d="M-98.2,54.1c0,0,1,1.2,1,2.7c0,1.5-1,2.7-1,2.7s-1-1.2-1-2.7 C-99.2,55.3-98.2,54.1-98.2,54.1z"/>
              <path id="path7235" class="st3"
                    d="M-98.2,53.4c0,0-1-1.2-1-2.7c0-1.5,1-2.7,1-2.7s1,1.2,1,2.7S-98.2,53.4-98.2,53.4z"/>
            </g>
          </g>
          <g id="g7237" transform="translate(-56.679158,0.23723715)">
            <path id="path7239" class="st7"
                  d="M-11.9,101.4c0,2.2-1.8,4-4,4s-4-1.8-4-4c0-2.2,1.8-4,4-4S-11.9,99.2-11.9,101.4z"/>
            <g id="g7241" transform="matrix(0.42103158,-0.42103158,0.42103158,0.42103158,2.770713,37.459859)">
              <path id="path7243" class="st3"
                    d="M-98.6,53.7c0,0-1.2,1-2.7,1c-1.5,0-2.7-1-2.7-1s1.2-1,2.7-1 C-99.8,52.7-98.6,53.7-98.6,53.7z"/>
              <path id="path7245" class="st3"
                    d="M-97.9,53.7c0,0,1.2-1,2.7-1c1.5,0,2.7,1,2.7,1s-1.2,1-2.7,1 C-96.6,54.7-97.9,53.7-97.9,53.7z"/>
              <path id="path7247" class="st3"
                    d="M-98.2,54.1c0,0,1,1.2,1,2.7s-1,2.7-1,2.7s-1-1.2-1-2.7C-99.2,55.3-98.2,54.1-98.2,54.1z"/>
              <path id="path7249" class="st3"
                    d="M-98.2,53.4c0,0-1-1.2-1-2.7s1-2.7,1-2.7s1,1.2,1,2.7S-98.2,53.4-98.2,53.4z"/>
            </g>
          </g>
          <g id="g7251" transform="matrix(0.59542857,0,0,0.59542857,-54.54856,25.12625)">
            <path id="path7253" class="st7"
                  d="M-40.4,128.6c0,3.7-3,6.7-6.7,6.7c-3.7,0-6.7-3-6.7-6.7c0-3.7,3-6.7,6.7-6.7 C-43.4,121.8-40.4,124.9-40.4,128.6z"/>
            <g id="g7255" transform="matrix(0.70710678,-0.70710678,0.70710678,0.70710678,-15.719501,21.112266)">
              <path id="path7257" class="st3"
                    d="M-98.6,53.7c0,0-1.2,1-2.7,1c-1.5,0-2.7-1-2.7-1s1.2-1,2.7-1 C-99.8,52.7-98.6,53.7-98.6,53.7z"/>
              <path id="path7259" class="st3"
                    d="M-97.9,53.7c0,0,1.2-1,2.7-1c1.5,0,2.7,1,2.7,1s-1.2,1-2.7,1 C-96.6,54.7-97.9,53.7-97.9,53.7z"/>
              <path id="path7261" class="st3"
                    d="M-98.2,54.1c0,0,1,1.2,1,2.7s-1,2.7-1,2.7s-1-1.2-1-2.7C-99.2,55.3-98.2,54.1-98.2,54.1z"/>
              <path id="path7263" class="st3"
                    d="M-98.2,53.4c0,0-1-1.2-1-2.7c0-1.5,1-2.7,1-2.7s1,1.2,1,2.7S-98.2,53.4-98.2,53.4z"/>
            </g>
          </g>
        </g>
      </g>
    </g>
  </g>
</svg>
