<?xml version="1.0" encoding="utf-8"?>
<svg version="1.1" id="svg2985" x="0px" y="0px" viewBox="-192 293.9 210 255"
     style="enable-background:new -192 293.9 210 255;" xmlns="http://www.w3.org/2000/svg">
  <style type="text/css">
    .st0{enable-background:new ;}
    .st1{fill:#005F00;}
    .st2{fill:#CDDACD;}
    .st3{fill:#FFFFFF;}
    .st4{fill:url(#rect3008_1_);}
    .st5{filter:url(#filter3970-5);}
    .st6{fill:url(#SVGID_1_);}
    .st7{fill:#BF3718;}
    .st8{fill:#2A3B92;}
    .st9{fill:#038249;}
  </style>
  <g>
    <filter width="1.2171124" height="1.2150326" y="-0.10751629" x="-0.10855621" id="filter3970-5"
            color-interpolation-filters="sRGB">
      <feGaussianBlur stdDeviation="0.12800763" id="feGaussianBlur3972-8"/>
    </filter>
    <g id="g4146" transform="translate(39.768324,209.71794)"/>
    <g id="g4630" transform="matrix(1.0005937,0,0,1,-1.3758072,203.40625)" class="st0">
      <g id="g3062">
        <g id="path3936" class="st5"/>
        <g id="g7499" transform="matrix(4.9748117,0,0,4.9841254,196.31546,-191.18541)" class="st0">
          <g id="g5773" transform="matrix(0.59542857,0,0,0.59542857,-31.994404,9.5143477)">
            <path id="path5775" class="st7"
                  d="M-40.4,128.6c0,3.7-3,6.7-6.7,6.7s-6.7-3-6.7-6.7c0-3.7,3-6.7,6.7-6.7 S-40.4,124.9-40.4,128.6z"/>
            <g id="g5777" transform="matrix(0.70710678,-0.70710678,0.70710678,0.70710678,-15.719501,21.112266)">
              <path id="path5779" class="st3"
                    d="M-98.6,53.7c0,0-1.2,1-2.7,1c-1.5,0-2.7-1-2.7-1s1.2-1,2.7-1 C-99.8,52.7-98.6,53.7-98.6,53.7z"/>
              <path id="path5781" class="st3"
                    d="M-97.9,53.7c0,0,1.2-1,2.7-1c1.5,0,2.7,1,2.7,1s-1.2,1-2.7,1 C-96.6,54.7-97.9,53.7-97.9,53.7z"/>
              <path id="path5783" class="st3"
                    d="M-98.2,54.1c0,0,1,1.2,1,2.7c0,1.5-1,2.7-1,2.7s-1-1.2-1-2.7 C-99.2,55.3-98.2,54.1-98.2,54.1z"/>
              <path id="path5785" class="st3"
                    d="M-98.2,53.4c0,0-1-1.2-1-2.7s1-2.7,1-2.7s1,1.2,1,2.7C-97.2,52.2-98.2,53.4-98.2,53.4z"/>
            </g>
          </g>
          <g id="g7345" transform="matrix(0.59542857,0,0,0.59542857,-22.994434,9.5143477)">
            <path id="path7347" class="st7"
                  d="M-40.4,128.6c0,3.7-3,6.7-6.7,6.7s-6.7-3-6.7-6.7c0-3.7,3-6.7,6.7-6.7 S-40.4,124.9-40.4,128.6z"/>
            <g id="g7349" transform="matrix(0.70710678,-0.70710678,0.70710678,0.70710678,-15.719501,21.112266)">
              <path id="path7351" class="st3"
                    d="M-98.6,53.7c0,0-1.2,1-2.7,1c-1.5,0-2.7-1-2.7-1s1.2-1,2.7-1 C-99.8,52.7-98.6,53.7-98.6,53.7z"/>
              <path id="path7353" class="st3"
                    d="M-97.9,53.7c0,0,1.2-1,2.7-1c1.5,0,2.7,1,2.7,1s-1.2,1-2.7,1 C-96.6,54.7-97.9,53.7-97.9,53.7z"/>
              <path id="path7355" class="st3"
                    d="M-98.2,54.1c0,0,1,1.2,1,2.7s-1,2.7-1,2.7s-1-1.2-1-2.7S-98.2,54.1-98.2,54.1z"/>
              <path id="path7357" class="st3"
                    d="M-98.2,53.4c0,0-1-1.2-1-2.7s1-2.7,1-2.7s1,1.2,1,2.7S-98.2,53.4-98.2,53.4z"/>
            </g>
          </g>
          <g id="g7359" transform="matrix(0.59542857,0,0,0.59542857,-40.994434,9.5143477)">
            <path id="path7361" class="st7"
                  d="M-40.4,128.6c0,3.7-3,6.7-6.7,6.7c-3.7,0-6.7-3-6.7-6.7c0-3.7,3-6.7,6.7-6.7 C-43.4,121.8-40.4,124.9-40.4,128.6z"/>
            <g id="g7363" transform="matrix(0.70710678,-0.70710678,0.70710678,0.70710678,-15.719501,21.112266)">
              <path id="path7365" class="st3"
                    d="M-98.6,53.7c0,0-1.2,1-2.7,1s-2.7-1-2.7-1s1.2-1,2.7-1S-98.6,53.7-98.6,53.7z"/>
              <path id="path7367" class="st3"
                    d="M-97.9,53.7c0,0,1.2-1,2.7-1c1.5,0,2.7,1,2.7,1s-1.2,1-2.7,1 C-96.6,54.7-97.9,53.7-97.9,53.7z"/>
              <path id="path7369" class="st3"
                    d="M-98.2,54.1c0,0,1,1.2,1,2.7c0,1.5-1,2.7-1,2.7s-1-1.2-1-2.7 C-99.2,55.3-98.2,54.1-98.2,54.1z"/>
              <path id="path7371" class="st3"
                    d="M-98.2,53.4c0,0-1-1.2-1-2.7s1-2.7,1-2.7s1,1.2,1,2.7S-98.2,53.4-98.2,53.4z"/>
            </g>
          </g>
          <g id="g7373" transform="matrix(0.59542857,0,0,0.59542857,-31.994404,-1.9857496)">
            <path id="path7375" class="st8"
                  d="M-40.4,128.6c0,3.7-3,6.7-6.7,6.7s-6.7-3-6.7-6.7c0-3.7,3-6.7,6.7-6.7 S-40.4,124.9-40.4,128.6z"/>
            <g id="g7377" transform="matrix(0.70710678,-0.70710678,0.70710678,0.70710678,-15.719501,21.112266)">
              <path id="path7379" class="st3"
                    d="M-98.6,53.7c0,0-1.2,1-2.7,1c-1.5,0-2.7-1-2.7-1s1.2-1,2.7-1 C-99.8,52.7-98.6,53.7-98.6,53.7z"/>
              <path id="path7381" class="st3"
                    d="M-97.9,53.7c0,0,1.2-1,2.7-1c1.5,0,2.7,1,2.7,1s-1.2,1-2.7,1 C-96.6,54.7-97.9,53.7-97.9,53.7z"/>
              <path id="path7383" class="st3"
                    d="M-98.2,54.1c0,0,1,1.2,1,2.7s-1,2.7-1,2.7s-1-1.2-1-2.7C-99.2,55.3-98.2,54.1-98.2,54.1z"/>
              <path id="path7385" class="st3"
                    d="M-98.2,53.4c0,0-1-1.2-1-2.7s1-2.7,1-2.7s1,1.2,1,2.7S-98.2,53.4-98.2,53.4z"/>
            </g>
          </g>
          <g id="g7387" transform="matrix(0.59542857,0,0,0.59542857,-22.994434,-1.9857496)">
            <path id="path7389" class="st8"
                  d="M-40.4,128.6c0,3.7-3,6.7-6.7,6.7s-6.7-3-6.7-6.7c0-3.7,3-6.7,6.7-6.7 S-40.4,124.9-40.4,128.6z"/>
            <g id="g7391" transform="matrix(0.70710678,-0.70710678,0.70710678,0.70710678,-15.719501,21.112266)">
              <path id="path7393" class="st3"
                    d="M-98.6,53.7c0,0-1.2,1-2.7,1c-1.5,0-2.7-1-2.7-1s1.2-1,2.7-1 C-99.8,52.7-98.6,53.7-98.6,53.7z"/>
              <path id="path7395" class="st3"
                    d="M-97.9,53.7c0,0,1.2-1,2.7-1c1.5,0,2.7,1,2.7,1s-1.2,1-2.7,1 C-96.6,54.7-97.9,53.7-97.9,53.7z"/>
              <path id="path7397" class="st3"
                    d="M-98.2,54.1c0,0,1,1.2,1,2.7c0,1.5-1,2.7-1,2.7s-1-1.2-1-2.7 C-99.2,55.3-98.2,54.1-98.2,54.1z"/>
              <path id="path7399" class="st3"
                    d="M-98.2,53.4c0,0-1-1.2-1-2.7s1-2.7,1-2.7s1,1.2,1,2.7S-98.2,53.4-98.2,53.4z"/>
            </g>
          </g>
          <g id="g7401" transform="matrix(0.59542857,0,0,0.59542857,-40.994434,-1.9857496)">
            <path id="path7403" class="st8"
                  d="M-40.4,128.6c0,3.7-3,6.7-6.7,6.7c-3.7,0-6.7-3-6.7-6.7c0-3.7,3-6.7,6.7-6.7 C-43.4,121.8-40.4,124.9-40.4,128.6z"/>
            <g id="g7405" transform="matrix(0.70710678,-0.70710678,0.70710678,0.70710678,-15.719501,21.112266)">
              <path id="path7407" class="st3"
                    d="M-98.6,53.7c0,0-1.2,1-2.7,1c-1.5,0-2.7-1-2.7-1s1.2-1,2.7-1 C-99.8,52.7-98.6,53.7-98.6,53.7z"/>
              <path id="path7409" class="st3"
                    d="M-97.9,53.7c0,0,1.2-1,2.7-1c1.5,0,2.7,1,2.7,1s-1.2,1-2.7,1 C-96.6,54.7-97.9,53.7-97.9,53.7z"/>
              <path id="path7411" class="st3"
                    d="M-98.2,54.1c0,0,1,1.2,1,2.7s-1,2.7-1,2.7s-1-1.2-1-2.7S-98.2,54.1-98.2,54.1z"/>
              <path id="path7413" class="st3"
                    d="M-98.2,53.4c0,0-1-1.2-1-2.7s1-2.7,1-2.7s1,1.2,1,2.7S-98.2,53.4-98.2,53.4z"/>
            </g>
          </g>
          <g id="g7457" transform="matrix(0.59542857,0,0,0.59542857,-31.994404,21.01425)">
            <path id="path7459" class="st9"
                  d="M-40.4,128.6c0,3.7-3,6.7-6.7,6.7s-6.7-3-6.7-6.7c0-3.7,3-6.7,6.7-6.7 S-40.4,124.9-40.4,128.6z"/>
            <g id="g7461" transform="matrix(0.70710678,-0.70710678,0.70710678,0.70710678,-15.719501,21.112266)">
              <path id="path7463" class="st3"
                    d="M-98.6,53.7c0,0-1.2,1-2.7,1c-1.5,0-2.7-1-2.7-1s1.2-1,2.7-1 C-99.8,52.7-98.6,53.7-98.6,53.7z"/>
              <path id="path7465" class="st3"
                    d="M-97.9,53.7c0,0,1.2-1,2.7-1c1.5,0,2.7,1,2.7,1s-1.2,1-2.7,1 C-96.6,54.7-97.9,53.7-97.9,53.7z"/>
              <path id="path7467" class="st3"
                    d="M-98.2,54.1c0,0,1,1.2,1,2.7c0,1.5-1,2.7-1,2.7s-1-1.2-1-2.7S-98.2,54.1-98.2,54.1z"/>
              <path id="path7469" class="st3"
                    d="M-98.2,53.4c0,0-1-1.2-1-2.7s1-2.7,1-2.7s1,1.2,1,2.7S-98.2,53.4-98.2,53.4z"/>
            </g>
          </g>
          <g id="g7471" transform="matrix(0.59542857,0,0,0.59542857,-22.994434,21.01425)">
            <path id="path7473" class="st9"
                  d="M-40.4,128.6c0,3.7-3,6.7-6.7,6.7s-6.7-3-6.7-6.7c0-3.7,3-6.7,6.7-6.7 S-40.4,124.9-40.4,128.6z"/>
            <g id="g7475" transform="matrix(0.70710678,-0.70710678,0.70710678,0.70710678,-15.719501,21.112266)">
              <path id="path7477" class="st3"
                    d="M-98.6,53.7c0,0-1.2,1-2.7,1s-2.7-1-2.7-1s1.2-1,2.7-1S-98.6,53.7-98.6,53.7z"/>
              <path id="path7479" class="st3"
                    d="M-97.9,53.7c0,0,1.2-1,2.7-1c1.5,0,2.7,1,2.7,1s-1.2,1-2.7,1 C-96.6,54.7-97.9,53.7-97.9,53.7z"/>
              <path id="path7481" class="st3"
                    d="M-98.2,54.1c0,0,1,1.2,1,2.7s-1,2.7-1,2.7s-1-1.2-1-2.7S-98.2,54.1-98.2,54.1z"/>
              <path id="path7483" class="st3"
                    d="M-98.2,53.4c0,0-1-1.2-1-2.7s1-2.7,1-2.7s1,1.2,1,2.7S-98.2,53.4-98.2,53.4z"/>
            </g>
          </g>
          <g id="g7485" transform="matrix(0.59542857,0,0,0.59542857,-40.994434,21.01425)">
            <path id="path7487" class="st9"
                  d="M-40.4,128.6c0,3.7-3,6.7-6.7,6.7c-3.7,0-6.7-3-6.7-6.7c0-3.7,3-6.7,6.7-6.7 C-43.4,121.8-40.4,124.9-40.4,128.6z"/>
            <g id="g7489" transform="matrix(0.70710678,-0.70710678,0.70710678,0.70710678,-15.719501,21.112266)">
              <path id="path7491" class="st3"
                    d="M-98.6,53.7c0,0-1.2,1-2.7,1c-1.5,0-2.7-1-2.7-1s1.2-1,2.7-1 C-99.8,52.7-98.6,53.7-98.6,53.7z"/>
              <path id="path7493" class="st3"
                    d="M-97.9,53.7c0,0,1.2-1,2.7-1c1.5,0,2.7,1,2.7,1s-1.2,1-2.7,1 C-96.6,54.7-97.9,53.7-97.9,53.7z"/>
              <path id="path7495" class="st3"
                    d="M-98.2,54.1c0,0,1,1.2,1,2.7s-1,2.7-1,2.7s-1-1.2-1-2.7C-99.2,55.3-98.2,54.1-98.2,54.1z"/>
              <path id="path7497" class="st3"
                    d="M-98.2,53.4c0,0-1-1.2-1-2.7c0-1.5,1-2.7,1-2.7s1,1.2,1,2.7S-98.2,53.4-98.2,53.4z"/>
            </g>
          </g>
        </g>
      </g>
    </g>
  </g>
</svg>
