<?xml version="1.0" encoding="utf-8"?>
<!DOCTYPE svg PUBLIC "-//W3C//DTD SVG 1.1//EN" "http://www.w3.org/Graphics/SVG/1.1/DTD/svg11.dtd" [
  <!ENTITY ns_extend "http://ns.adobe.com/Extensibility/1.0/">
  <!ENTITY ns_ai "http://ns.adobe.com/AdobeIllustrator/10.0/">
  <!ENTITY ns_graphs "http://ns.adobe.com/Graphs/1.0/">
  <!ENTITY ns_vars "http://ns.adobe.com/Variables/1.0/">
  <!ENTITY ns_imrep "http://ns.adobe.com/ImageReplacement/1.0/">
  <!ENTITY ns_sfw "http://ns.adobe.com/SaveForWeb/1.0/">
  <!ENTITY ns_custom "http://ns.adobe.com/GenericCustomNamespace/1.0/">
  <!ENTITY ns_adobe_xpath "http://ns.adobe.com/XPath/1.0/">
  ]>
<svg xmlns="http://www.w3.org/2000/svg" xml:space="preserve" id="svg2985" x="0" y="0"
     enable-background="new -192 293.9 210 255" version="1.1" viewBox="-192 293.9 210 255">
  <style>
    .st3{fill:#fff}
  </style>
  <switch>
    <g>
      <filter id="filter3970-5" width="1.2171124" height="1.2150326" x="-.10855621" y="-.10751629"
              color-interpolation-filters="sRGB">
        <feGaussianBlur id="feGaussianBlur3972-8" stdDeviation=".12800763"/>
      </filter>
      <path fill="#038249" stroke="#038249" stroke-miterlimit="10" stroke-width="2"
            d="M-128.8 455.2c3.2-.8 4.8-1.9 4.8-3.2 0-1.2-1.6-2.2-4.8-3.1-3.2-.9-6.9-1.4-11.3-1.4s-8.1.5-11.3 1.4c-3.1.9-4.7 2-4.7 3.1 0 1.3 1.6 2.4 4.7 3.2.2.1.5.1.9.2v28.8c-.4.1-.7.1-.9.2-3.1 1-4.7 2-4.7 3.2 0 1.3 1.6 2.4 4.7 3.2.2.1.5.1.9.2v28.8c-.4.1-.7.1-.9.2-3.1.9-4.7 1.9-4.7 3.2 0 1.3 1.6 2.4 4.7 3.2 3.1.8 6.9 1.2 11.3 1.2 4.3 0 8.1-.4 11.3-1.2 3.2-.8 4.8-1.9 4.8-3.2 0-1.2-1.6-2.3-4.8-3.2-.4-.1-.9-.3-1.3-.3v-28.6c.4-.1.9-.3 1.3-.3 3.2-.8 4.8-1.9 4.8-3.2 0-1.2-1.6-2.2-4.8-3.2-.4-.1-.9-.2-1.3-.3v-28.6c.4-.2.9-.3 1.3-.3zm-4.4 69.3c-2 .4-4.2.6-6.8.6-2.6 0-4.9-.2-6.8-.6-1.9-.4-2.8-.9-2.8-1.6 0-.6 1-1.1 2.9-1.6.7-.1 1.5-.3 2.4-.4v-29c1.3.1 2.7.1 4.3.1s3 0 4.5-.1V521c.8.1 1.6.2 2.3.3 2 .5 3 1.1 3 1.6 0 .7-1 1.2-3 1.6zm0-35.3c-2 .4-4.2.6-6.8.6-2.6 0-4.9-.2-6.8-.6-1.9-.4-2.8-.9-2.8-1.6 0-.6.9-1.1 2.8-1.6s4.1-.7 6.8-.7c2.6 0 4.8.2 6.8.7 2 .5 3 1 3 1.6 0 .6-1 1.2-3 1.6zm0-35.6c-.7.2-1.5.4-2.3.4v29.2c-1.5-.1-3-.2-4.5-.2s-3 0-4.3.1V454c-.9-.1-1.7-.2-2.4-.4-1.9-.4-2.9-.9-2.9-1.5s.9-1.1 2.8-1.6 4.1-.7 6.8-.7c2.6 0 4.8.2 6.8.7 2 .5 3 1 3 1.6 0 .6-1 1.1-3 1.5zm40.4-90.7c3.2-.8 4.8-1.9 4.8-3.2 0-1.2-1.6-2.2-4.8-3.1-3.2-.9-6.9-1.4-11.3-1.4s-8.1.5-11.3 1.4c-3.1.9-4.7 2-4.7 3.1 0 1.3 1.6 2.4 4.7 3.2.2.1.5.1.9.2v28.8c-.4.1-.7.1-.9.2-3.1 1-4.7 2-4.7 3.2 0 1.3 1.6 2.4 4.7 3.2.2.1.5.1.9.2v28.8c-.4.1-.7.1-.9.2-3.1.9-4.7 1.9-4.7 3.2 0 1.3 1.6 2.4 4.7 3.2 3.1.8 6.9 1.2 11.3 1.2 4.3 0 8.1-.4 11.3-1.2 3.2-.8 4.8-1.9 4.8-3.2 0-1.2-1.6-2.3-4.8-3.2-.4-.1-.9-.3-1.3-.3v-28.6c.4-.1.9-.3 1.3-.3 3.2-.8 4.8-1.9 4.8-3.2 0-1.2-1.6-2.2-4.8-3.2-.4-.1-.9-.2-1.3-.3v-28.6c.4-.1.8-.3 1.3-.3zm-4.4 69.3c-2 .4-4.2.6-6.8.6-2.6 0-4.9-.2-6.8-.6-1.9-.4-2.8-.9-2.8-1.6 0-.6 1-1.1 2.9-1.6.7-.1 1.5-.3 2.4-.4v-29c1.3.1 2.7.1 4.3.1s3 0 4.5-.1v29.1c.8.1 1.6.2 2.3.3 2 .5 3 1.1 3 1.6-.1.7-1.1 1.2-3 1.6zm0-35.3c-2 .4-4.2.6-6.8.6-2.6 0-4.9-.2-6.8-.6-1.9-.4-2.8-.9-2.8-1.6 0-.6.9-1.1 2.8-1.6s4.1-.7 6.8-.7c2.6 0 4.8.2 6.8.7 2 .5 3 1 3 1.6-.1.6-1.1 1.2-3 1.6zm0-35.6c-.7.2-1.5.4-2.3.4V391c-1.5-.1-3-.2-4.5-.2s-3 0-4.3.1v-29.1c-.9-.1-1.7-.2-2.4-.4-1.9-.4-2.9-.9-2.9-1.5s.9-1.1 2.8-1.6 4.1-.7 6.8-.7c2.6 0 4.8.2 6.8.7 2 .5 3 1 3 1.6-.1.6-1.1 1.1-3 1.4zm40.3 93.9c3.2-.8 4.8-1.9 4.8-3.2 0-1.2-1.6-2.2-4.8-3.1-3.2-.9-6.9-1.4-11.3-1.4s-8.1.5-11.3 1.4c-3.1.9-4.7 2-4.7 3.1 0 1.3 1.6 2.4 4.7 3.2.2.1.5.1.9.2v28.8c-.4.1-.7.1-.9.2-3.1 1-4.7 2-4.7 3.2 0 1.3 1.6 2.4 4.7 3.2.2.1.5.1.9.2v28.8c-.4.1-.7.1-.9.2-3.1.9-4.7 1.9-4.7 3.2 0 1.3 1.6 2.4 4.7 3.2 3.1.8 6.9 1.2 11.3 1.2 4.3 0 8.1-.4 11.3-1.2 3.2-.8 4.8-1.9 4.8-3.2 0-1.2-1.6-2.3-4.8-3.2-.4-.1-.9-.3-1.3-.3v-28.6c.4-.1.9-.3 1.3-.3 3.2-.8 4.8-1.9 4.8-3.2 0-1.2-1.6-2.2-4.8-3.2-.4-.1-.9-.2-1.3-.3v-28.6c.4-.2.9-.3 1.3-.3zm-4.4 69.3c-2 .4-4.2.6-6.8.6-2.6 0-4.9-.2-6.8-.6-1.9-.4-2.8-.9-2.8-1.6 0-.6 1-1.1 2.9-1.6.7-.1 1.5-.3 2.4-.4v-29c1.3.1 2.7.1 4.3.1s3 0 4.5-.1V521c.8.1 1.6.2 2.3.3 2 .5 3 1.1 3 1.6 0 .7-1 1.2-3 1.6zm0-35.3c-2 .4-4.2.6-6.8.6-2.6 0-4.9-.2-6.8-.6-1.9-.4-2.8-.9-2.8-1.6 0-.6.9-1.1 2.8-1.6s4.1-.7 6.8-.7c2.6 0 4.8.2 6.8.7 2 .5 3 1 3 1.6 0 .6-1 1.2-3 1.6zm0-35.6c-.7.2-1.5.4-2.3.4v29.2c-1.5-.1-3-.2-4.5-.2s-3 0-4.3.1V454c-.9-.1-1.7-.2-2.4-.4-1.9-.4-2.9-.9-2.9-1.5s.9-1.1 2.8-1.6 4.1-.7 6.8-.7c2.6 0 4.8.2 6.8.7 2 .5 3 1 3 1.6 0 .6-1 1.1-3 1.5z"/>
    </g>
  </switch>
</svg>
