<?xml version="1.0" encoding="utf-8"?>
<!DOCTYPE svg PUBLIC "-//W3C//DTD SVG 1.1//EN" "http://www.w3.org/Graphics/SVG/1.1/DTD/svg11.dtd" [
  <!ENTITY ns_extend "http://ns.adobe.com/Extensibility/1.0/">
  <!ENTITY ns_ai "http://ns.adobe.com/AdobeIllustrator/10.0/">
  <!ENTITY ns_graphs "http://ns.adobe.com/Graphs/1.0/">
  <!ENTITY ns_vars "http://ns.adobe.com/Variables/1.0/">
  <!ENTITY ns_imrep "http://ns.adobe.com/ImageReplacement/1.0/">
  <!ENTITY ns_sfw "http://ns.adobe.com/SaveForWeb/1.0/">
  <!ENTITY ns_custom "http://ns.adobe.com/GenericCustomNamespace/1.0/">
  <!ENTITY ns_adobe_xpath "http://ns.adobe.com/XPath/1.0/">
  ]>
<svg xmlns="http://www.w3.org/2000/svg" xml:space="preserve" id="svg2985" x="0" y="0"
     enable-background="new -192 293.9 210 255" version="1.1" viewBox="-192 293.9 210 255">
  <style>
    .st3{fill:#fff}.st7{fill:#2a3b92}
  </style>
  <switch>
    <g>
      <filter id="filter3970-5" width="1.2171124" height="1.2150326" x="-.10855621" y="-.10751629"
              color-interpolation-filters="sRGB">
        <feGaussianBlur id="feGaussianBlur3972-8" stdDeviation=".12800763"/>
      </filter>
      <path
        d="M-59 356.7h-89.4c-12.8 0-19.2 4.7-19.2 14.1v141.3c0 9.4 6.4 14.1 19.2 14.1H-59c12.8 0 19.2-4.7 19.2-14.1V370.8c0-9.4-6.4-14.1-19.2-14.1zm9.8 155.4c0 6.2-3.3 9.3-9.8 9.3h-89.4c-6.5 0-9.8-3.1-9.8-9.3V370.8c0-6.2 3.3-9.3 9.8-9.3H-59c6.5 0 9.8 3.1 9.8 9.3v141.3z"
        class="st7"/>
      <path
        d="M-70.4 367.5H-137c-9.5 0-14.3 4.1-14.3 12.3v123.3c0 8.2 4.8 12.3 14.3 12.3h66.6c9.5 0 14.3-4.1 14.3-12.3V379.8c0-8.2-4.8-12.3-14.3-12.3zm-73.9 12.3c0-5.4 2.4-8.1 7.3-8.1h4.4v4.8c0 5.4-2.4 8.1-7.3 8.1h-4.4v-4.8zm11.7 131.4h-4.4c-4.8 0-7.3-2.7-7.3-8.1v-4.8h4.4c4.8 0 7.3 2.7 7.3 8.1v4.8zm69.4-8.1c0 5.4-2.4 8.1-7.3 8.1h-4.4v-4.8c0-5.4 2.4-8.1 7.3-8.1h4.4v4.8zm0-9.1h-4.4c-7.6 0-11.4 4.1-11.4 12.3v4.8h-49.4v-4.8c0-8.2-3.8-12.3-11.4-12.3h-4.4V388.8h4.4c7.6 0 11.4-4.1 11.4-12.3v-4.8H-79v4.8c0 8.2 3.8 12.3 11.4 12.3h4.4V494zm0-109.4h-4.4c-4.8 0-7.3-2.7-7.3-8.1v-4.8h4.4c4.8 0 7.3 2.7 7.3 8.1v4.8z"
        class="st7"/>
    </g>
  </switch>
</svg>
