<?xml version="1.0" encoding="utf-8"?>
<svg version="1.1" id="svg2985" x="0px" y="0px" viewBox="-192 293.9 210 255"
     style="enable-background:new -192 293.9 210 255;" xmlns="http://www.w3.org/2000/svg">
  <style type="text/css">
    .st0{enable-background:new ;}
    .st1{fill:#005F00;}
    .st2{fill:#CDDACD;}
    .st3{fill:#FFFFFF;}
    .st4{fill:url(#rect3008_1_);}
    .st5{filter:url(#filter3970-5);}
    .st6{fill:url(#SVGID_1_);}
    .st7{fill:#2A3B92;}
  </style>
  <g>
    <filter width="1.2171124" height="1.2150326" y="-0.10751629" x="-0.10855621" id="filter3970-5"
            color-interpolation-filters="sRGB">
      <feGaussianBlur stdDeviation="0.12800763" id="feGaussianBlur3972-8"/>
    </filter>
    <g id="g4146" transform="translate(39.768324,209.71794)"/>
    <g id="g4630" transform="matrix(1.0005937,0,0,1,-1.3758072,203.40625)" class="st0">
      <g id="g3062">
        <g id="path3936" class="st5"/>
      </g>
    </g>
    <g>
      <path class="st7"
            d="M-61.9,486.4c-4.1,5.5-9.3,7.6-16.1,8.5c-4.3-4.4-2.6-10.1-6.2-14.1c-1.9,0-3.9-0.4-5.4,0.7 c-6.4-2.5-39.3,4.4-45.2,8.1c-2.6,0.5-4.1,2.3-7.1,2.3c-0.6-0.7-1.5-0.9-2.1-1.6c-2.4-2.5-10.1-13.4-10.7-16.4 c-1.3-0.7-11.4-32.2-11.6-35.5c1.9-3.7,3.6-7.4,6.2-10.6l2.6-0.2c-4.1,8,6.7,21.7,9.7,20.1l2.8-5.7h0.7c2.6-3.7,14-6,17.6-9.2 c-0.9-4.1-3.6-7.4-4.7-11.5c4.1-7.8,11.4,2.5,15.5,3.7c0.4,3,2.4,3.5,4.1,5.5c6-1.8,14.8,0.9,14.8-7.8c-0.6-0.9-0.6-2.1,0.2-3 c-0.2-3.2-2.6-5.5-5-7.2c-1.5,0.2-2.8-0.5-3.9-1.2c0.9-0.9,0-1.1-0.6-1.6c-10.3,3.2-21.7,0.4-32.2,4.9c-1.9,0-2.4,1.9-5.8,2.3 c-0.2-4.9,11.4-7.8,14.6-11.5c0.7,0.7,0.9,0.4,1.1-0.4c-1.1-2.8-7.7-10.1-10.1-13.2l0.7-2.3c7.3-0.5,36.5-2.3,39.6-8.3 c1.7-0.9,3-2.5,5.2-2.3c1.7-1.2,4.3,0.7,6.2,0.7c2.8,1.4,8.8,5.3,10.3,7.8c1.7,2.6,3.6,4.8,3.2,8.1c-0.4,3.4-20.6,7.4-22.8,9.4 c3,1.1,5.6,2.8,8.6,3.7c6,4.4,12.3,6.4,12,14.8c9.5-1.1,19.4-1.2,27.5,4.4c2.6,1.9,8.4,7.6,8,11 C-41.5,449.3-55.1,477.4-61.9,486.4z M-126,449.5c-0.9,0.4-2.1,0.4-3,0.5c-3.4,1.9-8.6,0.7-12.3,0.9c-3,3.9-0.9,17.5-0.9,22.6 c3,1.6,16.8-0.5,16.6-3.2C-126.5,463.1-126.7,456.9-126,449.5z M-104.9,441.9l-2.1,0.9c-2.2,1.2-4.5,1.1-3.6,4.1 c-2.4,3-3.2,18-3.4,22.4c2.2-0.2,6.5-1.2,8.2-2.8c2.2-1.9,4.7-20.8,4.7-24.6H-104.9z M-78.1,434.8c-4.5,9.2-7.9,19.3-11.4,28.8 c0,1.4,1.3,1.9,2.4,2.3c4.9,0,9-0.9,9.7,4.1l2.8,2.3c6.2-6.2,13.1-29,14.2-37.8C-62.2,433.2-75.1,434.5-78.1,434.8z"/>
    </g>
  </g>
</svg>
