<?xml version="1.0" encoding="utf-8"?>
<!DOCTYPE svg PUBLIC "-//W3C//DTD SVG 1.1//EN" "http://www.w3.org/Graphics/SVG/1.1/DTD/svg11.dtd" [
  <!ENTITY ns_extend "http://ns.adobe.com/Extensibility/1.0/">
  <!ENTITY ns_ai "http://ns.adobe.com/AdobeIllustrator/10.0/">
  <!ENTITY ns_graphs "http://ns.adobe.com/Graphs/1.0/">
  <!ENTITY ns_vars "http://ns.adobe.com/Variables/1.0/">
  <!ENTITY ns_imrep "http://ns.adobe.com/ImageReplacement/1.0/">
  <!ENTITY ns_sfw "http://ns.adobe.com/SaveForWeb/1.0/">
  <!ENTITY ns_custom "http://ns.adobe.com/GenericCustomNamespace/1.0/">
  <!ENTITY ns_adobe_xpath "http://ns.adobe.com/XPath/1.0/">
  ]>
<svg xmlns="http://www.w3.org/2000/svg" xml:space="preserve" id="svg2985" x="0" y="0"
     enable-background="new -192 293.9 210 255" version="1.1" viewBox="-192 293.9 210 255">
  <style>
    .st3{fill:#fff}
  </style>
  <switch>
    <g>
      <filter id="filter3970-5" width="1.2171124" height="1.2150326" x="-.10855621" y="-.10751629"
              color-interpolation-filters="sRGB">
        <feGaussianBlur id="feGaussianBlur3972-8" stdDeviation=".12800763"/>
      </filter>
      <path fill="#2a3b92"
            d="M-53.3 499.1c-6.9 2.5-8.2-3.4-14.5-5-3.4-3.2-9.3-13-13.4-14.7-2.8-3.4-14.8-12.3-19.2-13-2 5.3 4.5 28.8 2.7 37.8-.8 4.4-2.2 7.3-4.2 9.7-1.6 1.2-5.3 3.2-7.6 3.7-2.8-.4-4.7-2.3-4.9-4.8-3.2-6.7-10.9-10.6-14.6-17-4-2.1-4-6.2-5.9-9.5-4.9 3.5-19.3 15.8-25 18.3l-3.6-.8c-4.5-4.8 3.8-11 6.4-14.7l1.3 3.5c2.4-.7 15-13.8 17.2-14.8 5.7-10.2 6.2-3.3 5.8-16.9.8 2.3 2.2 4.9 1.6 7.4 2.4-2.8 4.2-6 6.1-9-2.2-.5-3.8 2.5-7.5.9-16.4-6.9-28.3-40.8-11.3-51.8 6.7-1.2 11.9-5.1 17.2-8.7-5.5-3.2-11.3-3.7-13.1-10.2 4-1.2 8.5-1.2 12.3-2.8 1.6 1.6 2.8-1.9 5.1-.7 2-1.2 8.7-2.3 7.7-5.5 3.8-5.5-6.1-10.1-5.3-13.1 1.6-6.9 10.7-2.8 15.4-1.4 3 .9 8.3 7.4 10.3 9.7 1.6 2.1 3.2 1.8 5.7.4 5.9 1.4 12.3 3.4 13.6 9.4-4 4.1-24.5 9.7-24.1 14.1 0 .5-.2 2.8.2 3 16-3.4 36-7.2 46.3 7.2 2.2 3 3.2 8.7.2 11.3-11.5 10.1-14.2 21.9-28.1 32.2-2.4-.5-4 1.9-7.3 1.4-2.6-2.1-4-7.1-8.3-4.8-1.8 0-3.4 1.2-4.4 2.5l.2 4.3c19.4 5.5 33.4 20.4 46.5 24.4 6.6 2.7 10.4 5.8 18.6 9 2.4 5.3-14.1 9.2-18.1 9zm-85.9-89.1c-1.4 1.9-1 4.2-1.2 6.4 4.9-1.8 9.7-3.7 15-4.4 3-2.6 7.7-2.1 10.9-4.2l.2-5.5c-8.1 2.6-17.2 3.7-24.9 7.7zm2.4 11.9c-6.3 1.2-2.6 7.1-2 10.8 1.4 2.1.8 4.9 2.8 6.7.8 3 1 6.4 2.6 9.2 6.5-1.4 12.5-4.4 16.8-9l-.6-2.6c-6.3 0-12.5-1.2-18.2-3.7-.2-1.9 1.6-1.8 2.6-3 4.7-.5 8.1-4.2 12.7-4.4 2.2-2.7 10.5-.5 5.3-6-7.2 1.3-14.7.5-22 2zm23.3 46.1c-1.2-.4-2.6-.5-4-.4-4 4.6-7.5 9.5-11.5 14.1 0 6 9.1 14.3 16.2 13.1 2.8-5.3.2-11.1 1-16.6-3-3.3-.1-7.1-1.7-10.2zm18.2-56.7c-3.4 1.1-3.6 5.5-3.6 8.4 7.3-2.5 14.9-3.2 16.2 3.1.4 4.7-3.5 5.7-5.9 7.8-3.4 1.4-5.1 2.8-8.5 4.2-.2.7-.2 3.6-.8 4.1 1.6-.2 3.2-.2 3.4 1.6 2.4.7 4.7 1.8 7.1 2.6 5.1-1.8 11.1-18.7 12.7-23.3 1-3.2.6-6.4 1.2-9.5-5.6-3.5-16-1-21.8 1z"/>
    </g>
  </switch>
</svg>
